<mxfile host="app.diagrams.net" modified="2024-05-12T23:55:27.350Z" agent="Mozilla/5.0 (Windows NT 10.0; Win64; x64) AppleWebKit/537.36 (KHTML, like Gecko) Chrome/124.0.0.0 Safari/537.36" etag="HDvoMvfr24cGVMqEssML" version="24.4.0" type="github">
  <diagram name="Page-1" id="12e1b939-464a-85fe-373e-61e167be1490">
    <mxGraphModel dx="2579.5" dy="759" grid="1" gridSize="10" guides="1" tooltips="1" connect="1" arrows="1" fold="1" page="1" pageScale="1.5" pageWidth="1169" pageHeight="826" background="none" math="0" shadow="0">
      <root>
        <mxCell id="0" />
        <mxCell id="1" parent="0" />
        <mxCell id="60da8b9f42644d3a-2" value="" style="whiteSpace=wrap;html=1;rounded=1;shadow=0;strokeWidth=8;fontSize=20;align=center;fillColor=#FED217;strokeColor=#FFFFFF;" parent="1" vertex="1">
          <mxGeometry x="316" y="405" width="280" height="430" as="geometry" />
        </mxCell>
        <mxCell id="60da8b9f42644d3a-3" value="Diagnose Patient" style="text;html=1;strokeColor=none;fillColor=none;align=center;verticalAlign=middle;whiteSpace=wrap;rounded=0;shadow=0;fontSize=27;fontColor=#FFFFFF;fontStyle=1" parent="1" vertex="1">
          <mxGeometry x="316" y="425" width="280" height="60" as="geometry" />
        </mxCell>
        <mxCell id="60da8b9f42644d3a-4" value="Blog&lt;div&gt;Keywords&lt;/div&gt;&lt;div&gt;Social Media&lt;/div&gt;" style="text;html=1;strokeColor=none;fillColor=none;align=center;verticalAlign=middle;whiteSpace=wrap;rounded=0;shadow=0;fontSize=14;fontColor=#FFFFFF;" parent="1" vertex="1">
          <mxGeometry x="316" y="725" width="280" height="90" as="geometry" />
        </mxCell>
        <mxCell id="60da8b9f42644d3a-6" value="" style="line;strokeWidth=2;html=1;rounded=0;shadow=0;fontSize=27;align=center;fillColor=none;strokeColor=#FFFFFF;" parent="1" vertex="1">
          <mxGeometry x="336" y="485" width="240" height="10" as="geometry" />
        </mxCell>
        <mxCell id="60da8b9f42644d3a-7" value="" style="line;strokeWidth=2;html=1;rounded=0;shadow=0;fontSize=27;align=center;fillColor=none;strokeColor=#FFFFFF;" parent="1" vertex="1">
          <mxGeometry x="336" y="705" width="240" height="10" as="geometry" />
        </mxCell>
        <mxCell id="60da8b9f42644d3a-8" value="STRANGERS" style="ellipse;whiteSpace=wrap;html=1;rounded=0;shadow=0;strokeWidth=6;fontSize=14;align=center;fillColor=#BFB4A9;strokeColor=#FFFFFF;fontColor=#FFFFFF;" parent="1" vertex="1">
          <mxGeometry x="259" y="545" width="115" height="115" as="geometry" />
        </mxCell>
        <mxCell id="60da8b9f42644d3a-9" value="" style="html=1;shadow=0;dashed=0;align=center;verticalAlign=middle;shape=mxgraph.arrows2.stylisedArrow;dy=0.6;dx=40;notch=15;feather=0.4;rounded=0;strokeWidth=1;fontSize=27;strokeColor=none;fillColor=#fff2cc;" parent="1" vertex="1">
          <mxGeometry x="406" y="573" width="100" height="60" as="geometry" />
        </mxCell>
        <mxCell id="60da8b9f42644d3a-17" value="" style="whiteSpace=wrap;html=1;rounded=1;shadow=0;strokeWidth=8;fontSize=20;align=center;fillColor=#FFC001;strokeColor=#FFFFFF;" parent="1" vertex="1">
          <mxGeometry x="596" y="405" width="280" height="430" as="geometry" />
        </mxCell>
        <mxCell id="60da8b9f42644d3a-18" value="Create Order" style="text;html=1;strokeColor=none;fillColor=none;align=center;verticalAlign=middle;whiteSpace=wrap;rounded=0;shadow=0;fontSize=27;fontColor=#FFFFFF;fontStyle=1" parent="1" vertex="1">
          <mxGeometry x="596" y="425" width="280" height="60" as="geometry" />
        </mxCell>
        <mxCell id="60da8b9f42644d3a-19" value="Forms&lt;div&gt;Calls-to-Action&lt;/div&gt;&lt;div&gt;Landing Pages&lt;/div&gt;" style="text;html=1;strokeColor=none;fillColor=none;align=center;verticalAlign=middle;whiteSpace=wrap;rounded=0;shadow=0;fontSize=14;fontColor=#FFFFFF;" parent="1" vertex="1">
          <mxGeometry x="596" y="725" width="280" height="90" as="geometry" />
        </mxCell>
        <mxCell id="60da8b9f42644d3a-20" value="" style="line;strokeWidth=2;html=1;rounded=0;shadow=0;fontSize=27;align=center;fillColor=none;strokeColor=#FFFFFF;" parent="1" vertex="1">
          <mxGeometry x="616" y="485" width="240" height="10" as="geometry" />
        </mxCell>
        <mxCell id="60da8b9f42644d3a-21" value="" style="line;strokeWidth=2;html=1;rounded=0;shadow=0;fontSize=27;align=center;fillColor=none;strokeColor=#FFFFFF;" parent="1" vertex="1">
          <mxGeometry x="616" y="705" width="240" height="10" as="geometry" />
        </mxCell>
        <mxCell id="60da8b9f42644d3a-22" value="VISITORS" style="ellipse;whiteSpace=wrap;html=1;rounded=0;shadow=0;strokeWidth=6;fontSize=14;align=center;fillColor=#397DAA;strokeColor=#FFFFFF;fontColor=#FFFFFF;" parent="1" vertex="1">
          <mxGeometry x="539" y="545" width="115" height="115" as="geometry" />
        </mxCell>
        <mxCell id="60da8b9f42644d3a-23" value="" style="html=1;shadow=0;dashed=0;align=center;verticalAlign=middle;shape=mxgraph.arrows2.stylisedArrow;dy=0.6;dx=40;notch=15;feather=0.4;rounded=0;strokeWidth=1;fontSize=27;strokeColor=none;fillColor=#fff2cc;" parent="1" vertex="1">
          <mxGeometry x="686" y="573" width="100" height="60" as="geometry" />
        </mxCell>
        <mxCell id="60da8b9f42644d3a-24" value="" style="whiteSpace=wrap;html=1;rounded=1;shadow=0;strokeWidth=8;fontSize=20;align=center;fillColor=#FFB001;strokeColor=#FFFFFF;" parent="1" vertex="1">
          <mxGeometry x="876" y="405" width="280" height="430" as="geometry" />
        </mxCell>
        <mxCell id="60da8b9f42644d3a-25" value="CLOSE" style="text;html=1;strokeColor=none;fillColor=none;align=center;verticalAlign=middle;whiteSpace=wrap;rounded=0;shadow=0;fontSize=27;fontColor=#FFFFFF;fontStyle=1" parent="1" vertex="1">
          <mxGeometry x="876" y="425" width="280" height="60" as="geometry" />
        </mxCell>
        <mxCell id="60da8b9f42644d3a-26" value="Email&lt;div&gt;Signals&lt;/div&gt;&lt;div&gt;Workflows&lt;/div&gt;" style="text;html=1;strokeColor=none;fillColor=none;align=center;verticalAlign=middle;whiteSpace=wrap;rounded=0;shadow=0;fontSize=14;fontColor=#FFFFFF;" parent="1" vertex="1">
          <mxGeometry x="876" y="725" width="280" height="90" as="geometry" />
        </mxCell>
        <mxCell id="60da8b9f42644d3a-27" value="" style="line;strokeWidth=2;html=1;rounded=0;shadow=0;fontSize=27;align=center;fillColor=none;strokeColor=#FFFFFF;" parent="1" vertex="1">
          <mxGeometry x="896" y="485" width="240" height="10" as="geometry" />
        </mxCell>
        <mxCell id="60da8b9f42644d3a-28" value="" style="line;strokeWidth=2;html=1;rounded=0;shadow=0;fontSize=27;align=center;fillColor=none;strokeColor=#FFFFFF;" parent="1" vertex="1">
          <mxGeometry x="896" y="705" width="240" height="10" as="geometry" />
        </mxCell>
        <mxCell id="60da8b9f42644d3a-29" value="LEADS" style="ellipse;whiteSpace=wrap;html=1;rounded=0;shadow=0;strokeWidth=6;fontSize=14;align=center;fillColor=#EF9353;strokeColor=#FFFFFF;fontColor=#FFFFFF;" parent="1" vertex="1">
          <mxGeometry x="819" y="545" width="115" height="115" as="geometry" />
        </mxCell>
        <mxCell id="60da8b9f42644d3a-30" value="" style="html=1;shadow=0;dashed=0;align=center;verticalAlign=middle;shape=mxgraph.arrows2.stylisedArrow;dy=0.6;dx=40;notch=15;feather=0.4;rounded=0;strokeWidth=1;fontSize=27;strokeColor=none;fillColor=#fff2cc;" parent="1" vertex="1">
          <mxGeometry x="966" y="573" width="100" height="60" as="geometry" />
        </mxCell>
        <mxCell id="60da8b9f42644d3a-31" value="" style="whiteSpace=wrap;html=1;rounded=1;shadow=0;strokeWidth=8;fontSize=20;align=center;fillColor=#FE9900;strokeColor=#FFFFFF;" parent="1" vertex="1">
          <mxGeometry x="1156" y="405" width="280" height="430" as="geometry" />
        </mxCell>
        <mxCell id="60da8b9f42644d3a-32" value="DELIGHT" style="text;html=1;strokeColor=none;fillColor=none;align=center;verticalAlign=middle;whiteSpace=wrap;rounded=0;shadow=0;fontSize=27;fontColor=#FFFFFF;fontStyle=1" parent="1" vertex="1">
          <mxGeometry x="1156" y="425" width="280" height="60" as="geometry" />
        </mxCell>
        <mxCell id="60da8b9f42644d3a-33" value="Events&lt;div&gt;Social Inbox&lt;/div&gt;&lt;div&gt;Smart Content&lt;/div&gt;" style="text;html=1;strokeColor=none;fillColor=none;align=center;verticalAlign=middle;whiteSpace=wrap;rounded=0;shadow=0;fontSize=14;fontColor=#FFFFFF;" parent="1" vertex="1">
          <mxGeometry x="1156" y="725" width="280" height="90" as="geometry" />
        </mxCell>
        <mxCell id="60da8b9f42644d3a-34" value="" style="line;strokeWidth=2;html=1;rounded=0;shadow=0;fontSize=27;align=center;fillColor=none;strokeColor=#FFFFFF;" parent="1" vertex="1">
          <mxGeometry x="1176" y="485" width="240" height="10" as="geometry" />
        </mxCell>
        <mxCell id="60da8b9f42644d3a-35" value="" style="line;strokeWidth=2;html=1;rounded=0;shadow=0;fontSize=27;align=center;fillColor=none;strokeColor=#FFFFFF;" parent="1" vertex="1">
          <mxGeometry x="1176" y="705" width="240" height="10" as="geometry" />
        </mxCell>
        <mxCell id="60da8b9f42644d3a-36" value="CUSTOMERS" style="ellipse;whiteSpace=wrap;html=1;rounded=0;shadow=0;strokeWidth=6;fontSize=14;align=center;fillColor=#68B85C;strokeColor=#FFFFFF;fontColor=#FFFFFF;" parent="1" vertex="1">
          <mxGeometry x="1099" y="545" width="115" height="115" as="geometry" />
        </mxCell>
        <mxCell id="60da8b9f42644d3a-37" value="" style="html=1;shadow=0;dashed=0;align=center;verticalAlign=middle;shape=mxgraph.arrows2.stylisedArrow;dy=0.6;dx=40;notch=15;feather=0.4;rounded=0;strokeWidth=1;fontSize=27;strokeColor=none;fillColor=#fff2cc;" parent="1" vertex="1">
          <mxGeometry x="1246" y="573" width="100" height="60" as="geometry" />
        </mxCell>
        <mxCell id="60da8b9f42644d3a-38" value="PROMOTERS" style="ellipse;whiteSpace=wrap;html=1;rounded=0;shadow=0;strokeWidth=6;fontSize=14;align=center;fillColor=#BF639A;strokeColor=#FFFFFF;fontColor=#FFFFFF;" parent="1" vertex="1">
          <mxGeometry x="1379" y="545" width="115" height="115" as="geometry" />
        </mxCell>
        <UserObject label="&lt;a href=&quot;https://www.flaticon.com/free-icons/doctor&quot; title=&quot;doctor icons&quot;&gt;Doctor icons created by DinosoftLabs - Flaticon&lt;/a&gt;" link="&lt;a href=&quot;https://www.flaticon.com/free-icons/doctor&quot; title=&quot;doctor icons&quot;&gt;Doctor icons created by DinosoftLabs - Flaticon&lt;/a&gt;" id="Rv-0y1nZuI-blnS7nTe4-5">
          <mxCell style="text;whiteSpace=wrap;" vertex="1" parent="1">
            <mxGeometry x="-20" y="593" width="110" height="40" as="geometry" />
          </mxCell>
        </UserObject>
        <mxCell id="Rv-0y1nZuI-blnS7nTe4-6" value="" style="endArrow=classic;html=1;rounded=0;exitX=1;exitY=0.5;exitDx=0;exitDy=0;entryX=0;entryY=0.5;entryDx=0;entryDy=0;" edge="1" parent="1" source="Rv-0y1nZuI-blnS7nTe4-10" target="Rv-0y1nZuI-blnS7nTe4-13">
          <mxGeometry width="50" height="50" relative="1" as="geometry">
            <mxPoint x="270" y="240" as="sourcePoint" />
            <mxPoint x="220" y="255" as="targetPoint" />
          </mxGeometry>
        </mxCell>
        <mxCell id="Rv-0y1nZuI-blnS7nTe4-10" value="" style="shape=image;verticalLabelPosition=bottom;labelBackgroundColor=default;verticalAlign=top;aspect=fixed;imageAspect=0;image=data:image/png,iVBORw0KGgoAAAANSUhEUgAAAgAAAAIACAYAAAD0eNT6AAAAAXNSR0IArs4c6QAAAARnQU1BAACxjwv8YQUAAAAJcEhZcwAADsMAAA7DAcdvqGQAAF+CSURBVHhe7b0JfFRVmvff9t7v2D09M93TPdPv9Mz0zLwzPT09//mPb/ff6VZruRWMjZh7A0EUWUUEBBRBQRTDJotsgsjmguKKK/sSEvYlQCAsYV/DDklVAqgoKud/nuIglcqT1K2kUnXuvb/vfL4fnZZbJHXP8zzn3nvueb4BANCTvLy8797aLOfvDMP8H79h5vizrIf8IXNowDAny3++Jv+3DwMhc1nAsEr8IWuf/N9PyX+PfG3IuiAVMV65/t/M0/IzDkU1zG3SVX7Dmif/2+vyn8/Lfw6Xn/eY/N87BIPmHcFgy//0+fJ+Ln+sG67+dAAAAABoMFRUg8GcW2Wx7SyL+AhZfN+VxbdU/v/n4oq3Ln4hf8aT8ufbLP/5gfzn2GDI7Cn/vXkweNe/33xzqx+oXw0AAAAA2dnZ3zMM63eyYHaVV9/T5JX3JllM46/QXaH83U7ISUyh/F0ny4lBD38oxwiF7vpb9VUAAAAA7uW2kPlreWXczW+Yr9Atdln0L3PF0mNWyYnBSvldTJT/3ikYtP6bHnOorwwAAABwHDcEAi1/E31Gb1jv+kPWmbjCB+vUvOwPmdvlv7/kC1ldbjNyfisnBd9S3ysAAACgF6FQ3p/7glYbWcDe1vh5vUM1L8p/rpCTqZG0ANHny7tRfe0AAABA+pFF/5dXn+Fb8/2G+XnNogWbSvldfxkwrBL53Y8KZuW0oMmXOiUAAABA00BF3x+yBkZX5jPFCWZC87KcDKyV52UYLTDEmwcAAABSwh/+cNcP6f13aZH0K74IQV30G9Zn8jytooka7VegTiMAAACQmPz8/G8Gg1aWvNKnjXA+5goNdIb+kHk0EDJf8Idyb6fXL9UpBgAAAK5DC8yiz/UNazdXTKCzlZO5T+Q/59M5xl4EAAAAvmEYub+SV4rjpdXxRQO60+jjHMMqpkcFt4Vy/0UNBQAAAF5AFnyfLAYf4dk+jL5ZELL60UJPNTwAAAC4DX9W7h9pUV+tIgAhGW2oZD586+3W36ghAwAAwMkEAjl/kMm9kE36EMYpJ4m050Ah7UoYaGbeFG3UlGUF6d/pscEtzZv/hRpaAAAAdCQYNH8fCJmLuSQPYSO9EDDMnXKyMFdOFoZc3ZwICwwBACCj0OI+maA/ikvYEDa5fsM6KScFr8iJZy7tJaGGJAAAgKbkzjvv/F+0M5xMvpe45AxhOr26OZG1lDpCZmdn/0gNUwAAAKmEbsEGDOsIl4ghzLzmRTk5ne7LyvkvNWQBAAA0hmgLXqzshw5STgTWyQnBPWh5DAAADYC2d5WJdIRMqF/EJ1gIHaFh7aZ20rQFtRrWAAAA6uM2I+e38gpqK5tUIXSY/pC5xRcyb1HDGwAAQDw33dT1OzJZPi2L/2UukULoYK8EDOv1W7Jb/VQNdwAAAAQ96w8Y5mYmcULoHg0rQk2L1LAHAABPc4NMiI/RK1VswoTQhcrxPjsUyvtzFQMAAOAt6N1pmQzfj0+OEHpBf8g8SrtZqnAAAABvQO9L+0PWQS4xQugdzUsyFjqqsAAAAHcTCOW28xvWJ3xChNCLmhPxuiAAwLX4fB2+Lwv/DD4BQuh1zbdp/wsVLgAA4A6CwVa/CBhWCZ/4IISkP2QtuvnmVj9QYQMAAM5GbedbziU8CGGchrXS58u7UYUPAAA4k0CWFfSHzGo20UEI63IFPTJTYQQAAM4imGXl0SpnJrlBCBPoN8y5Pp/v2yqcAADAGcir/odlAvuKS2wQQntSi2EVUgAAoDd0xUJJi0tmEMKGaA5Q4QUAAHpC/c9lsnqDT2IQwoZ49U5a7p9UmAEAgF6g+EPYhFIToYD5TyrcAABAD6K3/Q1rNpu4IIQp0R8yt+PNAACANtCVv98w3+QSFoQwxRrWcyr0AAAgc6D4Q5h2rwSD5h0qBAEAIP2g+EOYGf2GddIwzL9SoQgAAGnlhoBhzeSSE4Sw6fWHzNdULAIAQPrwh6xhXFKCEKbNK8FgbkCFJAAAND2+kNWFSUYQwjQrJ+K7brqp63dUaAIAQNPhN6zmMvF8EZ+IIISZUU4C+qvwBACApiEYNH8vJwAfc0kIQpgpzYvBYIufqTAFAIDUYhi5v5JXGmf4BAQhzKRyYv68ClUAAEgd9LpRwLAOxCcdCKEe+g3zc5qkq5AFAIDGk5+f/81AyFzMJR0IoUYa1usqbAEAoPHgdT8InWG0Y2Cg5W9U6AIAQMPxGead0aTCJBsIoYYa1kwVvgAA0DB8zVr8s0woVbUSDIRQY83LoVDeL1UYAwBActx8c6sfyESylU8wEEKd9RvmGBXKAACQHDKJvBqfVCCEjvGCz5fzYxXOAABgD3+W9RCTUCCETtKw+qiQBgCAxASDd/17IGReYhMKhNA5GuYeGdI3XI1sAACoB2ooIpPGZjaZQAidZyDnDyq8AQCgbvyGNZJNIhBCR+o3zFdUeAMAAA9dKchk8SWXRCCETtX8FIsBAQB14vPl3egPWQf5BAIhdLK+kNVFhToAANTEb1gzuMQBIXS+/pBZoEIdAACu4w/l3i6TxJX4pAEhdIf0aC8ry/prFfIAAKBa/IbM01zSgBC6SMPsqsIeAAC+8Q2ZFF5kkwWE0GWay1TYAwC8jrz6/x90+YPQM35xS3arn6rwBwB4lby8vG+h0Q+EXjO3nUoBAACvEgxZj/AJAkLoXs03VAoAAHgRny/v5/6QWc0nCAihi63Iz8//pkoFAACvIa8C3mYSA4TQAwaD1n+rVAAA8BI+IzfEJQUIoUc0zCdUOgAAeIXs7Ozv+UPWXjYpQAi9oWGtVCkBAOAVZPHvzyYECKFn9BvWZ3QxoNICAMDt0Pu/WPgHIYwayPmDSg0AALcTMMzJbCKAEHrRfio1AADcTCBw178GQuZlJglACD2o37A+UOkBAOBmZMDPiU8AEELv6g9ZZ1R6AAC4lUBW7m1cAoAQelvDyP2VShMAADcSMMwNXPBDCL2ueY9KEwAAt+EzzDv5wIcQel2/YY1UqQIA4DJu8IfMTVzgQwih3zAXqlwBAHATfiOnJRf0EEJ4VfO4ShcAALdA3b7k1f92PughhPCqhmH+lUobAAA3EDBy7+WCHUIIY/UZOX6VNgAAToeu/gOGuYcLdgghrKFh9VKpAwDgdPDsHzrZYFYu+7/DptKcplIHAMDpyKv/zXygQ6i/fbt3EXe3upf9bzD1+kNmgUodAAAn4zOsbC7IIXSKK2YNFaOf6MX+N5h65QTgkEofAAAn4zfMVVyQQ+gE27ZpKy5vnSYKXhnM/nfYJH5x001dv6NSCADAifhC1s1McEPoGFe/OUxc2T5DhNc+j7UA6TRg/pNKIwAAJyIDGR3/oGPt82CXaPG/5v3t27N/DjaBWWYzlUYAAE7j1qwW/+g3zC/Z4IZQc5vfmSdOFD1XYwIw7Zm+7J+FqTcYMrupVAIAcBqBkDmRC2wIdZdu9Re+OrhG8Sd3zB3N/nmYeuXFwxiVSgAATuIPf7jrh37DOs8FNoS6+9LIfrWKP/nVthki12rDHgNTq8wfb6l0AgBwEnL2/igX1BDq7pgne8tCP52dAJBjn8TrgGlyhUonAACnkJeX9y16j5cJaAi19rn8h+st/uS6t4ezx8LU6g9Z+1RKAQA4hWBWTgsuoCHUVXrm/9aEAWzBj/ezkmmiefM89nNgSr2gUgoAwCkEDHMBE8wQaqmVc7fY8M4zbLGvy1FP9GQ/C6ZWny/vRpVWAAC6c2uznL/Dq3/QKT7+0AOiYs0ktsjX56b3RrCfB1PrbaHcf1GpBQCgO/6QOZQLZAh1spXVRix9pfZrfnb9ctt00TL3bvazYQrNyr1NpRYAgM74fL5v+w3rJBvIEGrgXXe1FrPGPi4+3jiFLezJOHlIH/bvgKnUbK3SCwBAZ4JZlsUHMYSZtXWre8Qb4/unpPBfc9/CsezfBVOoYXZX6QUAoDMyYOfXCmAIM2SoWa4Y2PvB6Gt7dMueK+KN9cGOHdm/G6ZGf8h8UqUXAICu3JLd6qeBkHmZC2II02X2Ha2iRX/etKei3fu4op1K6e/hfg6YMsepFAMA0BU5U3+YCV4Im1S6tT+kbw/x3vMDRdm8Z8XlrU1zpV+Xn2yaGm0axP1sMCW+qlIMAEBXAoZVwgQvhCmTbul37dhBTBr8iCh8dYg4s2oiW5TT7fhBvdmfFzZev2HNUykGAKAjt4XMX3PBC2Fj/FPzVtH39F8d+7goeX9k9GqbK8CZ9vDS8dGdBLnfATZSw1yr0gwAQEfkLH0kG7wQJmEwy4ouqpsxoq/Y/N5I8fmWaWzB1dH+PR9gfyfYSA1zj0ozAAANuSFgWIfZ4IUwgdRad3Df7tHFdA3ZkU8XsTNgU2meVnkGAKAbhmH9jg9cCHk739devDK6n9i/eCxbTJ0odRC8v1179veFjRINgQDQFX/IepYJWgi/lp6Pd+/cSbw5YYA4VjiBLaBucMnL+ezvDxuu3zC/kmnmhqvZBgCgFXICcJALXOhtqej36tJZfPDCk9qs1m9qvyidLtq2act+H7Dh3nxzqx+odAMA0AVfqOX/5QIWete7W90bXcR3rOg5tki63YUvPs1+L7Dh+nx3/kSlHACALgQMcxQXsNBbNm+eJ0YO6BlduU/PwrnC6BVpI6J778ZdgFTquz3nH1TKAQDoAr2iwwUsdL/0yl6/hx4Qha8OFpdKnPO6XjpcMGMQ+53BBhpo+RuVcgAAOmAYub9igxW6WuqjT7f4Ty735i1+O1LjoU73tWO/P5i8waD5e5V2AAA6gL3/vSVd7TdlVz23ufat4ez3CJNX5hqfSjsAAB0IhMxlXLBC95h1e250k549C8awRQ7Wb59u97PfK0xOfyjHUGkHAJBpsrOzf+Q3zM+5YIXOl/bgn/ZMX3FuddO303Wz1J0QPQIar8+wslXqAQBkGnn1n8sFKnS2Wbe3FOMGPSwq10xmCxpM3lFP9GS/a2jfYFZOC5V6AACZRk4ApnGBCp3ptcLv5L34dTW89nnRokVr9nuH9gxmWZZKPQCATIPd/9wjPeM/tdIbO/VlyvcmD2S/e2hPOQHIU6kHAJBJaFMOLkihs+zSvr3Y+uFItmDB1EpbBNP3zZ0HaEMj916VfgAAmSRgmF3ZIIWO8K67Wou5057C63xpds+CsSLUDAsCG6RhtVfpBwCQSfyGNZsNUqi9A3s/iJX9GZTerODOC0xoJ5V+AAAZ5IaAYZ5jAhRqLO3et/L1oWxRgumTtkxuh26BSes3zA4q/wAAMsVtIfPXXIBCfR37VG/x8aYpbEGC6XfH3NHCwN4ASenLMu9TKQgAkCkCIfMBLkChftKrZ0WvDWGLEMysL4/qx54zWIdYBAhA5pHB+Gqt4ITaSVvQnl2Fd/p1ld4K6N65E3vuYG19QauNSkEAgEyB9//1lm4tvzG+v/hqG194oD6WLxsvmt+Zx55HWFPsAwBAhgkGW/yMC06ohzk5rcXmd0ewxQbq6Zo3h6FXgA39Rk5LlYYAAJnAF8wxueCEmfeB9h3EyRXoz+9E8WpgYrEVMAAZJmBYw7nghJl1RP+Hoq+XccUF6i+tB0Db4PpFMyAAMkzAMJdwwQkzI906njnmMbaoQGcZWTdZtG51D3ueIbUDzg2pNAQAyATYAEgfaUvZ+dMHscUEOtNd858VzbJbsufb6/qzcv+o0hAAIN3cmtXiH7nAhOm3efM8LPZzqfOmPcWec68bDFr/rVIRACDd+IJWKy4wYXq1zLvF/sVj2eIB3eFLI7FJULzB4F3/rlIRACDd+EPWMC4wYfpsmXu3OLR0HFs0oHv8att0MebJ3uwY8KrUglylIgBAupFB+FF8UML0eXfePeJYEV7z84rUqnnQI93YseBFaQ8SlYoAAOkmYFgHuMCETe89efeKk8tR/L0mvdrZq0tndkx4zezs7B+pVAQASCc339zqB37D/JILTNi03t3qXnFmJfb096rV618QHe69jx0bXvKmm7p+R6UjAEA6CTQzb+KCEjatZs7d4kjBeLYwQO9YuWay6Ni2HTtGvKDfsD5WqQgAkG4ChtWeC0zYdNKrfnsXjmELAvSe4bXPi/vbtWfHius1zFMqFQEA0g22AE6v2Xe0FNs+Gs0WAuhdabfA+9t7cBJgWLtVKgIApJtAyHyHDUyYcml738JXB7MFAMLzxS+Ibp06smPHrfpD1nqVigAA6UbOwEu4wISpd9a4/mzih/CaNAno3rkTO37cqblYpSIAQLrxh8xqPjBhKh3ar0d0Exgu6UMY66ebp4inPLNPgPmOSkUAgHSSlWX9NR+UMJX27nq/+HwLWvpC+9JmQZOH9GHHk7s0p6l0BABIJ76QdTMflDBV5lptRMXa59kkD2EiqYEQdYfkxpZLHK3SEQAgncjZd2smIGGKpMSNFf+wsa59a7j4U/NW7Bhzgf1UOgIApBN/KLcvE5AwRb793AA2oUOYrOXLxovO97nwNUHDaq/SEQAgnfgNcwIblLDRDuz9IBb9wZT6yaapYthjPdjx5lR9hpWt0hEAIJ3IAHw/PiBh481r2Uac3/ACm8QhbKzvT35SZN3ekh17jrOZeZNKRwCAdBIwrGI2KGGDpc1+Nr47gk3cEKbK3fOfFe3vdX4PgVAo75cqHQEA0omcABzjghI23In5j7AJG8JUSy2FZ4zoKyed/Fh0gj5fh++rdAQASCeBkPkpF5SwYbZr0za6iQuXrCFsKje/O0K0bnUPOyZ11m9Y51UqAgCkE58v70YuKGHDpKuwsrnPsgkawqb2401TxMTBjwgjyzl7BvhD1kGVjgAA6SQQMP+JC0rYMCc8/TCbmCFMp/sWjXVOLwHDWqnSEQAgnWAXwNRJu/1dKMaqf6iHX5ROj+4g2CpX98cC5hsqHQEA0onPMO/kgxIma8EraPEL9fNSyVTx5oQBokWL1uy41UBsAwxAJvBlmfcxAQmTtG/3LmzyhVAXq9e/IKYO6yNuv6P23gGWebfo0bmT6NejS9SHu3ZO252DYMjsqdIRACCd+A2rBxeU0L604Orw0vFs0oVQNyPrJotXRvcTo5/oJVbMGirO1/PYih5pFb/zjBg/qLdomXs3O/4bqy+YY6p0BABIJ4GQOYALSmjfcYOw8A+638tbp4ulrwwWHe69j42DBotdAAHIDP6QNYINSmhL6s6GNr/QS9LiQlpT0Cw7NdsQB4MtfqbSEQAgnQQMczIXlNCeM8c8xiZJCN3ugcXjxD1597JxYVe/YX6en5//TZWOAADpRAbgK1xgwsTSM1Hs+Ae9bMWaSeL+9o1oT2yY+1UqAgCkGzkBmMUGJkzoO5MGskkRQi9JbxdQ50suRhJrLlapCACQbvyG9RYfmLA+rRxc/UN4zQ3vPMPGSWLNF1QqAgCkGxmA7/GBCevzjfH92UQIoVft1aUzGyv16Q/l9lWpCACQbmQQfhQflLB+72rROtp0hUuCEHpVekWQi5f6xB4AAGQQGYTz44MS1u/Lo/qxCRBCL0sbDAWT7EJ4m5HzW5WKAADpJmCYS7jAhLzU7vf0yolsAoTQ6ya7WyC1I1epCACQbgKGVcgFJuTt3/MBNvFBCGeIBzt2ZOOG0x+yzqg0BADIBNSLmwtOyLv6zWFs4oMQzhDdO3di44ZTTgBWqzQEAMgEMgjXccEJa0v9/mk/dC7xQQiTvgMwXaUhAEAmCBhWMRecsLYzRvRlkx6E8KpdO3RgY4fVsPqoNAQAyARyFr6eDU5YQ1rdfLxoApv0IIRX7di2HRs/nP5Q7u0qDQEAMoHfMIu44IQ1fbRbFzbhQQiv27rVPWz8cIZCeb9UaQgAkAkChrmAC05Y04JXBrMJD0J43ebN89j4iddvWB/L9HPD1SwEAMgI2Ao4sdT3HDv/QVi/X26bHt0ng4uhWhpWiUpBAIBMgW6AiX2iV1c24UEIr0utgbn4YTWs11UKAgBkikDInMYGKPzaBTMGsQkPQnjdPQvGsvHDaw5QKQgAkCn8hjmBD1BIGlm5IrJ+MpvwIITXXfvWcDaGOH2Gla1SEAAgU/hD1gguQOFVsfofQnt+8MKTbAxx3nq79TcqBQEAMkXAsAZxAQqv+qFMalyygxDWdNLgR9gYqqVhnlPpBwCQSWRA9qsVoDAqbf5zZhU6/0FoR2qUxcVRvH7DWqrSDwAgk8hg7MEFKbREt04d2UQHIaztva3bsnEUr98wx6j0AwDIJIGQ2ZoLUmiJl0b2YxMdhLCmF4pfiN4x4+IoXnnR0ValHwBAJgkGcwNckEJLbHpvBJvsIIQ13frBKDaGWAMtf6PSDwAgk1AwskHqcbNuzxWfbsbufxDacfakJ9g4qq35qc/n+7ZKPwCATHJLdquf8oHqbXt16cwmOghhbfMf7c7GUS0Nc61KPQCATJOfn/9Nv2F+yQarh315FJ7/Q2jXVlYbNo7i9YfM8Sr1AAB0QE4AznLB6mU3vzeSTXQQwpqWLxvPxhCnL2i1UWkHAKADAcPcyQWrV826vaW4VDKVTXYQwprOnfYUG0echpH7K5V2AAA64DfMIi5YvSqe/0No34G9H2TjKF5/yKqU6eaGq1kHAKAFgZD5DhewXnXqsD5sooMQ1vTzLdPEn5q3YuMoXnmhsVClHACALvhD5iQuYL3q4pfy2WQHIazpxndHsDHEaliDVcoBAOiCP5jzOBuwHvXA4nFssoMQ1nTMk73ZGOIMBs07VMoBAOhCMMvK4wLWi9IGQJe3TmOTHYTwupe3Thc5Oa3ZOIrXb5hf+Xw5P1YpBwCgC4Fm5k1c0HrR+9u1Z5MdhLCmxbPt3/6XE4BtKt0AAHSCZuZc0HrREY/3ZJMdhLCmwx57iI0hTr9hPa/SDQBANwKGFYkPWi/6zsQn2GQHIbzuxY1TRPYd9lb/X9VsrVINAEA35ASghA9cb4kOgBAmds5U+5v/kKHQXX+rUg0AQDf8hvUuF7he8+yqSWzCgxBe9att08X97duz8cPpD1kHVZoBAOhIwDBHccHrJWkL4K+28UkPQnjVdW8PZ+OnTg1rpkozAAAdkROArmzwesh7727LJjwI4XVpq2wufurSH8y5X6UZAICOBINWFhe8XrLPg13YhAchvGrSV//SW7Na/KNKMwAAHbm1Wc7fccHrJUcOwCuAENYlbZDV7p772NipSzz/B8Ah+A0zzAWxV3x59GNs4oMQzhCvje3Pxk39mtNUegEA6IycAKzig9gbzp8+iE18EHrdPQvGRhfJcnFTn7TNuEovAACdCRjmZC6IvSJtbcolPwi9LG3607ZNWzZm6vPq/v93/kSlFwCAzviD1oNcIHvFIwXj2QQIoVel5/6PduvCxktCDatEpRYAgO4Yhvk/bCB7xMi6yWwShNCLflE6XQzt14ONFVsa5iiVWgAAuvOHP9z1Qxm4V2oFskf8rARtgCEkP98yTTzdpzsbJ3alV4tVagEAOAF/yDzEBbPbDTXLZRMhhF7z9MqJ4qH7O7FxYle/YX3s83X4vkorAAAnIIP3o/hg9oJ3tWjNJkMIveKX26aLj6Y8JZo3z2NjJEnnqJQCAHAK/pA5lAlm13t33j1sUoTQ7V4qmSbmz3ha3N/OfoOfRNKCYpVSAABOQQbvXfHB7AU73deOTY4QutGKNZPEillDxcT8R0ROTms2JhpjKJT3S5VSAABOISvL+msuoN3uQ106sYkSQjfZo3Mn0Sw7+Q19ktFvmNtUOgEAOA3av5sLbDf7WI8H2IQJoVvcs2AMO/ZTrcwfI1QqAQA4jYBhvc4Ftpsd1KcbmzQhdIt0u58b+6nWFzJvUakEAOA0/IbVgwtsN/vUI5gAQPdKO/qZOXezYz+VUkMxn8/3bZVKAABOIxi0/psLbjf7RK+ubOKE0A0unzWEHfepVk4AXlFpBADgRGgGHwiZF7kAd6v9e2INAHSvtMiVG/ep1meYd6o0AgBwKgHDWskFuFvt9xAmANCdbp8zmh3zqde8iN3/AHABfsMayQe5O6WOZ1zyhNDp0voWbsynXvNtlT4AAE4mmJXTgg9yd/pw185s8oTQyR4rnCCCWfyYT7Xy78lT6QMA4GSudgY0L3OB7kZ7dcEEALrPcYMeZsd76jU/zcrK+jOVPgAATidgmBv4YHeftEMal0AhdKpnVk0Ut9/RtLv+xfiRShsAADfgD1nDmEB3pZ3va88mUQid6tinerNjvWnMbafSBgDADfiMHD8f7O6zZe7dbBKF0IkeL5ogsm7PZcd66jUvZWdn/0ilDQCAG8jLy/uu37A+5oPeXYaa5Yqvtk1nkymETnP44z3Ycd4UyhwxW6UMAICbkMG9lAt6N3q++AU2mULoJA8tHZe2lf+kL5hjqnQBAHAT/mDO41zQu9FjRc+xCRVCJ5m+9/6jVmVnZ39PpQsAgJvwUl+AsrnPsgkVQqe4Y+5oefWfrmf/UsN8UaUKAIDbyM/P/6YM9Ipage9C1709jE2qEDrBr7bNEN06dWTHdlPpD+UYKlUAANyIP2S+xgW/21z04tNsYoXQCc6f8TQ7rptMwzyVl5f3LZUmAABuxG/ktGQTgMucOfoxNrFCqLsXN04RuVYbdlw3oeNUigAAuBWfL+9GeteXSQCusnnzPHFu9fNsgoVQZ6cMe5Qd001pMNjyP1WKAAC4GTkBWMwlAbc5tF8PNsFCqKu06U+z7LRt+RvVH7I2qtQAAHA7fsPqwSUCN7r+nWfYRAuhjg7o1ZUdx01pMGR2U6kBAOB2gsFWv5CBfyU+EbjRVrn3iPMbsCkQ1N8Vs4ayY7hpNS/5fDk/VqkBAOAF/CFzC58Q3Ocz/R9iEy6EukgL/2iyyo3fptV8Q6UEAIBXCBjWYD4huFO6uuISL4Q6+OzAXuy4bWrx7j8AHsSXlfNfXEJwq2bO3SK8Fm8FQP3c+uHI9O74d03DOkKbg6mUAADwEjIB7GYTg0ulfdW5BAxhprxUMk3c1+Y+drw2tf6QNVClAgCA15ATgCFcYnCzBa8MZhMxhJlw2jN92XHa1PoN8/NgsMXPVCoAAHgNX7Pcf+OSg5u9q0VrUbFmEpuMIUynexeOEaFmGbj1L5UTgDdVGgAAeJWAYe3gEoSbfazHA9FmK1xShjAd0q3/Tve1Y8dnOvSFzFtUCgAAeBV/yHySSxBu960JA9jEDGE6nDT4EXZcpkMZ82Uq/AEAXsYwcn8lk4InNgWKlW69ls19lk3OEDalm98dkZlV/0rs/AcA+JqAYW7mEoXbvTvvHnG+GLsEwvRZtX6yaJX+Tn+xXsjOzv6RCn0AgNeRSaFfXJLwjIP7dmcTNYRNIY03bhymTcOcrMIeAAC+8Y1Q6K6/9Rvml2zC8IBzpz3FJmsIU+n8GU+z4y9dyhj/ytesxT+rsAcAgKv4Q9YiLml4wazbc8WOuaPZpA1hKjy5/DnR/M48dvylSzkB+FCFOwAAXCeYZeVxScMr3t3qXhFZP5lN3hA2xs9KpokHO3Zkx1069Wfl/lGFOwAAXCcvL++7MklUxCcNL/loty7iy23T2SQOYUMd+2RmGv3E6g+Zm1SoAwBAbQIhcyKXPLzkiyP7sUkcwoa4dGY+O87SLd3hU2EOAAC1uc3I+S2XPLwkvZ+98nW0DoaN9+DicSL7jlbsOEurhnXE5/N9W4U5AADwBELmVjaJeEharHVwyTg2qUNoxwvFL4i2bdqy4yvdBkPWIyq8AQCgbvyG1ZtLIl7znrx7RWQdFgXC5P1q23Qx6JFu7LhKt/6QVenz5d2owhsAAOrG58v5sZwEfMwlE6/Z84HO4vMt09gkD2Fdzhr7ODueMiH1+lChDQAAiZGJ46X4ROJVRw7oySZ5CDmLZ48QRgb3+Y9VFv9qmtCrsAYAgMT4snL+i0soXvVNdA6ENjxSMF60aNGaHUOZUE4AhqqQBgAA+wQMcwOXVLwovRlQ9NoQNulDSFaumSza5N3Ljp9MSI/xbslu9VMVzgAAYJ9AKLcdl1i8Kr3OVTYP7YNhbS+VTBXdOnVgx02m9IesZ1UoAwBAcmRnZ3/Pb5hnueTiVXNyWkdv83JFAHrTr7bN0GbF/3XNS9TgS4UyAAAkj9+wRvIJxrvmtWwjTq+cyBYD6D2nDuvDjpNMKifuE1QIAwBAw/DdnvMPXm4TXJft2rTFHgFQLJgxiB0fmdW8mJVl/bUKYQAAaDh+w3qXTzTe9qEunaLPfrnCAN1v8TvPiFAzPV73i9Ufsoap0AUAgMZhGNbvuEQDLdGvRxdxeSs2CvKaO+aOFnf8KbO9/euw6pbmzf9ChS4AADSegGGtYZINlI54vGd0IRhXKKD7pDdBqFcENxYyrzlAhSwAAKQGXzDH5BMOJIc91kN8UTqdLRjQPR5YPE7cdZc+G/3U1DydlZX1ZypkAQAgZdwQMMw9fOKBJCYB7rZ82XiRa7Vhz70OBkNmTxWrAACQWmSC6cYlHnhdTALc6fGiCaJV7j3sOddBf8g6mJeX910VqgAAkFpuvrnVD2SyqYhPPrCmmAS4yzOrJkZbQ3PnWhf9Rk5LFaYAANA0BAxrEJeAYE0nPPWwuIKFgY63Ys0k0bZNW/Yc66K8+l8vQ/OGqxEKAABNRCiU9+cy6VTFJyFYU2oHe2k1tgx2sl9unSa6tGvHnl+NvEKv6arwBACApiVgWMOZRATjrFgwXE4Cxokr2/A4wGl+uWWq+KRotMjScKOfWP2GOUuFJQAAND2GYf4VbTfKJSR43aMfDBEfLxspPl05RnyFNQGO8cstU8QnhaNEeNEz7HnVR/PTUCjvlyosAQAgPQQMcyyflOA1d739dHQCEJ0ELB8dvarkCg7Uxy82vxAt/nTOTswZyp5XbTSsISocAQAgffh8eT+XVyCX2MQEo5a89uTXEwDyk6JR0atLrvDAzHt50/PiY1X8ySMfDGHPqxYa1jEZgzeqcAQAgPTiN6zn2eQEo26aObDGBICkq0u6yuQKEMycnxdPksW/5rna/24+e151EK/9AQAyyq23W38jJwGfcAkKWmLDy0/UKChfKwvN5U1oJayLn62dwJ4neoTDnddMK2NuqQpBAADIHFgLULdrZwxgC8s1P1//HPYKyKC0MPPSqrHsuSG3v65fr39Z/D8zDPP/qPADAIDM4fPd+ROZmC7EJypoiVXT+rOFJVZ6TfArvCaYdr/cOlV8uvxZ9pxcs+TVJ9nzmkn9ITNfhR4AAGQef8gaxiUrr7t82uNsYYmXChEVJK5QwdRLj1+urfSvT3qEw53XTEn7/ft8Hb6vwg4AADKPz5fz44BhRbik5WWXTbE3ASCpIF3e+DxbsGDqpMcu3PfPuebFAex5zZQ+w8pWIQcAAPogr04GcknLyy55vh9bWOrzszXjsXNgE/hV6TRxaWXdz/s5V07XZwLgN8w3VagBAIBeXO0UaB7nkpdXXTgx+QkA+emKMXgkkEK/sHnLP95V+kwAKm7JbvVTFWoAAKAfcgLwAJO8POvc8X3ZwmLXz9dPxFsCjZAWV9b1ip8d6S0O7rym22CWladCDAAA9CQvL+9b/pBZxiUxLzp/YuMmACS9pka3r7kCB+v2i5IXxCcJVvknct1LmV8E6DeseSq8AABAb3yGeSeXyLxoQ9YAcNIWwpc3TmILHawpXfV/vk5e9cft6tcQNXgLoCoYbPULFVoAAKA/AcMqZJKZ5yxM4i0AO15aibUB9Rlt5LN8NPvdNcSNMwey5zVtGlZ7FVIAAOAMDMP6nUxgV2olNI9Ji8i4wtIo5ZXtZ7Q2gCmAXvUrOSn6bPU4/vtqhJszuBGQ3zAXqnACAABnIZPYq/FJzWtueKl2M6BU+UnRaHG5eJK3FwnS7X56r78BK/ztWPr6U+x5bXIN8xx121ShBAAAziIYbPEzv2GdZxOcR6QrSK6wpFJ6ZfCLEu+1GKbJD62N4L6TVLl3dsa6Ad6lwggAAJyJvJJ5gklunpGuILnC0hTS+gBa+c4VSzdJuyV+uqJxq/vtWv7hUPa8NqVy0jxFhQ8AADiXvLy878pJwH4u0XnBsrcGsYWlKaXXBl03EdimrvhTuMDPjucWDGfPa5NpWAd8vrwbVfgAAICzCWZZFpvsPOD+2flsYUmHn64co9YIOHdbYWrXS5sh0XoH7ndsai8UjGDPa9NoXg4Gzd+rsAEAAHfgD1mL+KTnZnPFwQ+HsoUlnVLxpCLqpM2E6HW+z1aPZ3+fdJud3ZI5t6nXH8x5XIULAAC4h0Ag9+/9hvUxl/jcaOj2PDFx0uvi5MLkms80qYVX1wl8XjwpulkOV3gzKe1vQCv6032bP5Gtc+9mz3EqpQlyfn7+N1W4AACAu/DKgsA/tbhXvDJzjigoKBHnC5p2lXqDpcnAqnHRycCXWzN3Z4Cu9GnXvk81K/qxPti+HXueU6ZhHfP57vyJChMAAHAfPp/v237D3MYmQZeYm9dZzJ5dIJYt2yLmz1/LFhQdpVX1n6+dEF1h31Q7DdIjCOrKR1f5tFCR+zl0dEC3Tuy5To3mZX9W7h9ViAAAgHvxhcxbZOJz5Q6B97XvKebNWxst/uT77xawBcUJUutcelxAnfRo/QBNDGivgS+3TI0uzOMeIVCBpx35viyZerXQb5gUnVTQnQbdbusn4+h+D7LnOxX6Dau3Cg0AAHA/AcN8kUuGTrZj5z5iwYINXxd/8p0357AFBTrLGU/3ZM95Cpwjw+GGq1EBAAAeoFmzVn/pN8yzTEJ0pN16DBCLF2+qUfzJ2bNmswUFOss54/uy571RGub+7OzsH6mQAAAA7xAI5bZjE6PDfLTfcFnsS2oVf/KDV2exBQU6y02p7wh4wZdl/YcKBQAA8Bw3+A2ziEmOjnHAwNFs4b/mklnT2YICneWJOanbDliO+S/9htVcxQAAAHiTW7Na/KNMihfik6QTHPjUGLbox1ry7kS2oEDn2bx5K3YcNMB+avgDAIC3CRhmdyZJau3AJxMXf/L0otT3p4eZsXuHxu8FIK/+Z6lhDwAAQHJDIGQu5hKmjg4ZNokt9vEuWriBLSTQmY7r340dD3b1h6z12dnZ31NjHgAAABEK5f3Sb1jnucSpk/mDJ7LFnvPdt/AKoJuc/1w/dkzYUV75lweDLX6mhjsAAIBY/MGc+7nkqYuJFvzF+9GrM9lCAp3p3tn57LhIpD9kVgeDLf9TDXMAAAAc8kppIZdEM+3jA0awRb4+N7w9iS0k0LnmJd0UyLwUDObcqoY3AACAugiF7vpbmTgraifSzNn3sWHRpj5cka/LOXNWi3OLx7BFBDrX4X0eYMcIJ73uJycAuWpoAwAASEQwaN4hE6gWvQIe7D4g6eL/9ttLRP/ePdkCAp3toon21wFgj38AAGgA/pA5nkuq6ZT29l+yZCNb5OvypZc/EHfc2ebSrGd6X+QKCHS2lYuGizv+1JIdL7H6Q9YINZQBAAAkQ15e3ncDhrmZS65p8Mp97R46v3Bh8Vdcka/LBQvWv/vYY6N/SD//xWUjNnMFBDrfIQ934cbM18ri/7IcAmjwAwAADSUQMP+p4a8GmpfkBOKUP2Qekgl5l/z3tfJ/n08bscj/NjFgWIPlf3tY/rN9MCunRbRFcaDlb2gNwoIFG369bFnJOa7I1+NgIUQ06V8sGvUbrnBAd1g66ylmvF1Vjtd3fT7ft6MDGAAAQMPxBa02skiXSAtl4X5PFvIXZUF/VjpQJtse8n+7h9YM+ELWzb5muf9G71o3ZrOVFStKfiKL/wGmwLMWFJRckf/sow6PcrFgxDSucED32LNjexR/AABwCytWrPi+LOjr4ot8Xari30sdHqV6wci/+LhgJJ7/u1y6CxCsOQH46Kabun5HDQMAAABOgW7fFxRseSO+yNfjl/LPd1KHf40sDs/HFwvoTl8Z1uvalf9SbPELAAAORRbzEUyRr8OSr+Sfb6cO/ZqLhc/858WCkV9wxQK6z4sFI8S0YX13+3wdvq+GAAAAACexdOmW+/hCX1u67V9QsLm7OvRrKvas/eH5LR/s4QoFdK/VBzYcr6yq7KyGAQAAAKdQWLj5v2Vh/yS+0NelvPLvrw79mtOnT/9Z9amD5dXH97JFArrXqhP7vohEIpcqqyt/r4YDAAAA3VmxYuPP5RX9ca7Q1+EQdejXVFVV/ThScXJfpCoiIpFKcbEI2/96xYuFz4pIuEJEz31V5FRlZeUv1LAAAACgK4sW7f9eciv+t0xUh37N2bNnb5RXfxtVAYh6sfhVtlhA93mx+LWvz3tUORbobpAaHgAAAHREFv9pXKHnLfkgP198Ux0aRQjxHZn0F9UoANLzO5ewxQK6z/NlS2ucezIcCRfKsfFdNUwAAADoREHB1nv4Qs9Zsnnp0m01rurolcFwVfjV+ORPVh/dxhYL6D6ry7fXOv+kHBtvyjFSY8IIAAAgwxQVlf5GFvWP+WIfb8nhwsINP1OHRlHFfyKX+KNWnBYfF45iCwZ0kfIc07lmx4A0HAlPoLGihg0AAIBMsmJF2Y0FBSW7+GJfy3BR0aZ/VYdGkQn925FI5EUu4cd6cc00vmhA13hx7XT23McqJ4qvyTGD3QEBACDTyCv6t5hCz1jy2dKlW25Th0WhxV0yqS+MT/Kc57fNYYsGdI90jrlzX8tIZFlFRUW0QyQAAIAMIAt759qFnregYHMXdViUs2fP/lwm8k1sgmesPljMFg3oHukcc+eeNRLZeObimRqPkgAAAKSBJUu2/HNBwZYLXLGvbcksdViUyurKkEzip2ol9fo8c5QtGtA9VslzzJ77OgxHwufC4XBzNawAAAA0NVff99+ylS/28ZaUrl+//gd03JUrV74nr9xGycT9FZfQE3lx5US2cEDne3Hlc+w5T6QcS1doASmNrejgTCFr1679IfWnkGN4eEFBSb/Cwq3/rv4TAAB4E5kMx/PFvqYyeVYUFW35ezqmorridzJZl3JJ3K4XS2azxQM6Xzq33Dm3qxxbW6qrq2+KDtAUUFi4OUsW/nM1x3TJV9KpNAFWfwwAALzD0qUlQTkBoJ79MYmRk7r7ldx+7ty5v5FX/dNlgv6SS9zJeH7vSrZ4QOd7fu8q9pwno7obMIvWl6jh2iDkxPXXcgzX18uiuLCwFFsUAwC8w6JFxT+SRf0okxBrWVRU+pRMxv1lYr4Qn6gbKhoDuVc6t9w5b6Dn5dh7/OTJk/9LDd2kkGP8bW5MxyonCaflJPcWdQgAALgbmRhf4pJhvGvW7Dggr8YqmMTcONEYyJXGNQBKpdW0PqCysvJ/qyFsi6vFnR/bsco/d1naSR0GAADuZOnSzc3s3PpfvrxUnD3XJMk8KjWL4YoIdK61GgClWDkZ/Uw6MxwO/4+dnQTlOK/ixjaniok+6lAAAHAXK1aU/njZspKT8cmP8/CR42wSTpXny9AYyG1yDYCa0OO0JkXagnahVEO8BvKqfgU3tutTHjNUHQ4AAO5BJrgX4xMeZ+m2/VzCTaloDOQ+6Zxy57rJjUTOhCPhj+Q/B1RVVfmpFTWN96VLt7TgxnciCwpKJqFXAQBAeyhRVVdX/4VMfP8QDod/K/2j9I5wdfhumRB7hqvCI2hF9aEjJ7ZxyS7e1at3iMpwJZ9oUykaA7nLBA2A0qmcDHwpPSDH/cqtpfu2c+Pchs+oEAMAgNRDm55UVlb+Qhbs39BzTVm0b5fmSbvK5NVXOkQmsgmykL8kfVe6TLpRJrk90hNSWyvzK8NhWtDHJbkaFhZuFcdPpC+JU9MYtphAx0lNnrhzrIOHDh8XRUVb2TFfnzt2HNwm4+1lisFoLFJMUmxejdHbozErY7eiouJvm2IDIwCAQ6Erc3lV/o+V1ZXNZLJ4UCaSUdLZMiFtkAnloPxnyl6rS+TOnYfYBBdv2a5D7PFNJRoDuUfbDYAy5ImTZ8Tq1dvZcV+f+w+Us59XhxdUbG+IxjrtliljX+aALMoFKjUAANyELPbfkgH+X/JqoLsM+mkyAayTnldJIaOeOn02emXPJbdY160ro1un7Gc0lWgM5B6TagCUIemtlvXry9jxX5cUO+XHTrGf1wApJ6yVTpW5opvMFf8P5Q6VRgAATkAGLfW+v02aLy2QAZ22q/lk3bhxN5vYYi0s3JLWW/9fi8ZArpHOJXuONZMeh23clDgmYl2xcltTvhJ7XuaQpSqX3Eq5RaUZAIAu0CYk0ed/kfAH0aDlg1krDx06zia0eLdvP8Aenw4vrniOLSjQOdI55M6trtIkYHPJHjYW6pLuHNBx3Oel2Go5EXg/XBV+gNYHqfQDAEg3FIAyGB+WQblWFv4Gdb7LlJSsVq1K/Mxzpby6qahMw6r/OrxQ8g5bVKBzpHPInVudpcddyU4C0j1RVjlnLeUgTAYASAOnT5/+s6qqqo5yBr7aaUU/1p1lB9kkFu/hwyfY49MlNY/higp0jtTciTu3uht9HGDjEVmsh49kJl4oF8mctFJOBto3tDcCAKAOqM2tDK4ZMtgccXu/Pk+fOWfrtSdKftzx6bT6xD62qEDnmOIGQGmV9rxIZmEg3TE7V9F0W2TbtFo6NZVtkwHwHEKIb8qi30K6LC7AHK2dW5s0QTh95ix7fFpFYyBH24QNgNLmuXMVth6XXXPr1n3s52TCcCRcQncFsHgQAJscOXLk+zJoesrgOcQFlZOl1fxc0op3z54j7PGZEI2BnGtTNwBKlydk3CSzWVBT98pIVpnLDsqc9hDlNpXmAACxyFnyd2klvwwY2kWPDSSnu279TjZhxUq7AsqEwR6fCamJDFdcoP6muQFQk7pvfzkbL5x0xyCcnrcCklLG9dlwVbj/sWPHfqDSHgDeRhb+79DsWAbIyfiAcZMHbb72d7T8JHt8pkRjIOeasQZATSTd3udihnP3nsPsZ2jicdpsCI8GgKeprK4MyWDYGRccrpOu6Ffb2O9fh4V/taxEYyCnqksDoFRJr8TaXQ9QVFQaXT/AfY42RiJ7w9XhPJUOAfAGcvb7H7IoFrJB4UL327h9Sduanjx1hj0+06IxkPPUuQFQYzxy9AQbP5yZ3EQrKSORpZWVlf+u0iMA7oSefYWrwoNl8f+cDQQXSlf/9HoSl6Bi3bZN32SFxkDOU/cGQI1x69b9bAzFS5NqLd6msaHME5dlbpxIe52odAmAe5BX/dlykLtuZX8iaUU/l5xipRXOGry/XKdoDOQ8ndAAqKHS3v/Ll5eysRSvY+4CKGWOPECPRlXaBMDZ0M5YNLOVA/sKN+DdLO1mZufqn1oCc8frYhUaAzlOOmfcuXSLu3cnnliTuk+u61LmzFlnz569UaVRAJxHZWXlzbLw7+cGuBe0c/VPVzJOSFAXV05kCw3Uz4srndUAqCHS5Hr16sQLa8myXXpPsOtS5s7DkUjkVpVOAXAGQohvyRnsUDmAv+QGthek95DtXP3v2q3160pfe6FkNltsoH5elOeKO4du8+ChY2xMxUtxqOO+AHaUOfQLOQnIlzn1myq9AqAvFy5c+CmtauUGs5fcszfx1T8lJrqS4Y7Xzeq9K9liA/WTmjhx59BtyuIY3TiLi614qf029xlOUf6uy8+ePftzlWYB0A9Z+G+Tg9XVG/rY0e7Vv+abldQQjYGcI50r7hy6TYozWuTHxVa8tBaguHhX9M8fOFjumLcD4jwhf+c/qnQLgD6Eq8IPyFnqZWbQek477/3Ts/9M9vpPWjQGcoRuaABUn1T0aVfNzZv3JNUfgJPuHtAC3FOnnTMZUI8EHlJpF4DMQs/75YAcxQ1Wr2rntuSuXc65+r8mGgPpr1saAMVLr/5t33HA9ut/ybphw65oE6FwhP/7tTMSmY6thEFGqays/JEcjItrDU4Pe/hI4p3KnPpqEhoD6e/5siXsuXOqVPhpk6zGXu3blSbvFMPcz6Kb4arwArwqCDJCdXX1X8pZaDE3ML0sPWfkEkusO3YeZI/V3ery7WzRgfpI54g7d06TFvjt3Xu0ya74E0l9OU474NGA/J5KaOG1SssAND2y8P+9dC83IL0s9S3nkkmstD3pmbPn2OO1t/IMGgNprhsaANEz+fUbytj4SacUq7ThEE1GuJ9TI/fIfPxLlZ4BaDqoaYUccK7t2d8Yt2xJ3K50y5a97LFOEY2B9NUNDYAOHDyWttv9dqW7evQogvt5NfJYxfmKf1VpGoDUc+78uf8jB9qpuIEHpfRM307iOn7c2Vdo57fNZYsPzLxObgBE+2FsLbXf7z/drlixTRw/oXnsRiJn0FUQNAnnz5//FznIPP+Of13SdqNc4oiVVhpzxzrJ6oMb2eIDM69TGwCdq6iMPnPnYkYn6ZGA9hsKXZ0E/FqlbQAaT3V19T/JwYXb/nVIzwjtbPzj9N3ISDQG0teIAxsAUfFft67xz/vpCn1zyZ7oRJw2+tm772i0FwftyUH/ThsA0boCKuLc8XYtLNwi9h8oZ38XjTwuc/avVPoGoOGorX33MYMMKqmwc8kiVkpQDlhMZMuLKyexBQhmTic2AKKNsNavb3jxp0k3vVFz4qT9W/P0d9I6g8bccaBJBH0G9/m6KHPNIWwdDBoFvecvB9IWboDB69pJJmVlzuxIxonGQPp5oeQd9lzpamOKPxV+urJvbIOfk6fORO8acH9HIqOPAw7rfUcvXBXeXlVV9WOVzgGwz5UrV74ni38RN7DgdU+fORe9LcgliWvSf6c/xx3vRNEYSD/Py3PCnSsdpQV/tB6Gi5X6pDiiK/5UN9CixX2rbTYVitUJk4BIJFIghPiuSusA2EMOnBfZAQVrSFf2XHKIddOmPeyxThWNgfTTSQ2ASkr2snFSn6tWbRflx06yn5cK6fHc9u0H2b+7PmkSoPvbAfJ3m6nSOgCJCVeF+3IDCdaUkoadxX9O2VrUtpFK8XHRWLYQwfTrpAZAtDCPi5H6LNmyN22Ns44cPSFWrEhu98HVq7frv7V3JNJbpXcA6qayurKZLGxfsIMI1pCSBZcQYnXT4r9YLxbPYosRTL9OaQB0tPxk9IqZi5O6pNX76W7QQzsR2pnYx0rrgHSOc/mzfRkOh+9QaR6A2tCrI3KgVHEDCNaWrky4ZBArdTDjjnW6aAykj05oAETbXydbVHeWZa5nBq3ZWb1mO/tz1WUmf147ytwu51KRv1fpHoDrCCG+IwfJ+vhBA3nplqSdq5kTJ8+wxztdNAbSR90bANEVfLKL/ujdfe6z0um5cxW2WnvHWl7edOsUUmIkshGLAkEtwlXhieyAgawHDhxjE0CslDy4Y10hGgNpo+4NgKiYc/FRlzpdSdOdgBVJ3LmgxYqV4fSsV2iwkchYlfYB+MY3qqqqzHAkfIUdLJDVzrv/tOCJO9YtXlw7gy1IMH3q3gCIbv0XFdlfVEeP1dL9zD+RtMo/mQZFtG6B+xxdjOb6SOROlf6Bl7lw4cJP5GA4ww0UyEudwey8+++ADmKNEo2BMq/uDYA2brK/4x5tDNTYzX2aysNHjieM+WvSnzt2/BT7ObooJwHnLl68+NeqDACvIov/e9wAgXW7Z2/iV5nc0PgnkWgMlHl1bgBEe+ZzscFJb8voPmGmTYi4n52TNhbSdTJzTTkJ+EiVAeBFZPG/jxsYsH7tLGiiSQJ3rJusOlPOFiWYPqk5E3duMi3t1pfMs3MnNMqSBVOsW7+T/fk5d+/WPwfISUobVQ6Al6DbP3JAh7lBAeuWNvyws/qfnn1yx7vNiysnsoUJNr0XV+jbAGjXrsNsXHCWlu5nP0NHaY8Au+sBli8v1X6DIFkDKukxsCoLwCuEq8KvcQMC1u++/YlXNNOzTO5YN3phCxoDZUpdGwDRrXy7RXL16h36r5qPM5m3GuixAfcZWhmJvKTKAvAC8oTfKmd+WPXfALH6v6bVe1exxQk2vefld8+dk0xLq+C5uOCk3TS5z9BZekthnc1OhnS3UPe7gdFaEIn4VHkAbkZt+FMWPwhgYs9V2Nv85/SZs+zxbrQKjYEyZvXxvew5yaT03rzdq/9iOZnmPsMJ0quB3O/EWbpN/0cc4arwDlkbvq3KBHArcqbXmxsAMLEHDx1nAzxWV2/+w4nGQBkxvGyCCGt463zr1v1sXMRLE2l6ns59hlPcunUf+7vFS7+rEy4KwuFwd1UmgBupqKj4YTgSPsudfJjYLVsSB7xb9/6vzxXrisWWJa+LimXj2WIFG+fJgkny+31DzF+0WMxYsEkMnndIjF3Jn4tMmsyzf0c8G08gbRVMC/243y/eHTv0/31lbThXWVn5I1UugNsIV4VHciceJlYGR/RdZS64Yy0v13sDkKbwvdKI6D4nInpIB807IqYt2Cw+WlggNix+RxwumCouLBvNFjZY07MFz4myJTPF8kUfibcWrhTj5u0Ufeeein638c7eyp+LTFpWdoiNiXivro531sK/urT7tgPthpiulsaNUdaIoapcADchZ3b/W57gT+NPOLQn7ezFBXasdPVD7z9zx7vZjYdrF6hYe82pEEPmHZQTgxLx0SKaGMwWB5dOF5FlY9hC6GbPFkwQ+5a+JNYvmS3mLloqXlpQLEbO2ysenXOa/e7qcsMh/lxkymTe+6eJAvcZTpRe87O71fHevXru2RDnx+fOnfsbVTaAW5Azu8nMyYY2tXN1s3nzHvZYt3u6MiIemssXqkTSFe6weQfE8/NLxesL1oh5ixaL1Yvfj14JH186WZwvcMbdg4vLRonT8gqeJjZbl7wuVi3+IFrgX1u4Tjw3f3v0tv3Dc86x30Gy0p2WE+f4c5Ep9++3t+sfTZLdtkW23R0CqVEQ3UnkPkMn5c84QZUN4AbOnj37c3licfXfCO289kN7BHDHesEhy/hi1Vh7zAmL/nNPRO8gjJlfJl6YXyJmyaL6/sJCsWDhYlG4aI5Ys/g9sXHJ22KbLLx75dU1FeHypS9EPbl0UnRtQiKpeNOfp0cW9BllS14RpUtmic1L3oxOSJYtmicnJ0vE7EXLo0Wd7mY8N3+HGConL/TzPSR/Tu7nbwoHy++aOweZdO1aezvkueHZf7zJrH04fNgBrz1GIpdwF8BF0IyOPdHQlnZ7/zt9VXNjfHUTX6xg6p0pv2vuHGRKO4/HSIoh3XfGa6i0yI/7neOlfUS447UzEhmtygdwMhcuXPipPKGf1DrB0LaHDid+/W/lym3ssV5x+T6+WMHUW7SXPweZkt5z52IiXnpFkDveDdJrfna6BTqoS+jF6urqv1RlBDgVOZMbxJxcmIR2djbbskW/TVnS6aHTfLGCqffgKf4cZMLo4j8bb8eQtHkO9xlusXhj4iZhpEMWA9JdgAGqjAAnonb9O17rxMKkpM19uECOlRZBccd6yf6L+YIFU+dji/jvPlMePnKCjYd4vbBBFnU05H73eNetc0yvkBNUQ1Q5AU4jHA7fy5xUmIT0zJIL4nhPn/ZG97/6nLKeL1owdU5ex3/3mbJky142HuKlBjrc8W6SVvjTo0Du94/XKeuFwtXh1qqcAKchT+D6+BMKk/PwETz/t+uCMr5owdQ5fyf/3WdCu4tjry7+c8fGP4ncudPeZkhlZYfZ4zV0rSonwElUnK/4V+ZkwiS1847v5hJvvv8f785jfNGCqXNHee3vPVMeOHiMjYd46S4Bd7wbpSt77juI10mPRCoqKv5NlRXgFCKRyBjuZMLkXL8h8fv/Xmr/W5+VkYh4eD5fuGDj7TUvIs6F+e8+E5aU2Lv9T8/GuePdqp01Q6RjHgNUhUeosgKcALV1lCfuVPyJhMlJz/TsbPBRfuwke7wXpSY1XPGCjXeMRg2AqCe+nefdXtwe225/AAeti6DFgN9S5QXojrz6v5M5iTBJ7WxwQu/1VmrYljVTXmsMBFOvTg2Ajh+31w/fi4/HTp46w34X8W7a5JzvJlwdvl2VF6A74arw69xJhMm5Z+8RNnBjpS1QuWO96sZDfPGCjbdYowZAZbvsLXY76LHb/9dcbeMxAN0dCTvl7kgk8rIqL0Bn6L3NcCQcYU8iTMqtW/exgRvr1tJ97LFetTGNgWDd6tYAaL2N3hhU4JzQArcptNsgqLzcGY8PZU2ppEfLqswAXZEzyju4EwiT185iHi83AKrLoYV8EYMNV6cGQPRKn53X/zZs2MUe7wXLy+31R3BSc6TK6sqQKjNAVyKRyIvcyYPJSc/17eztTesEuOO9LBoDpd5XNGoAZHf3P1oMxx3vBWkBsZ1JkoN2BaS3AaaoMgN0RZ4obP2bAu12OPPqLc76XIHGQClXpwZAZWX2nv97fXJcXLyb/V5ipUkCTRa443VTTgCOqjIDdCQcDv8Hd+Jg8tKtfS5gY121ajt7rNc9jMZAKVenBkDU0paLh1i9+PpfvLt223sd0ElNkmiDOVVugG7IGdqj3EmDybvNRotTJ73Gk27RGCh16tYAaPnyUjYeYnVM3/smlAo7993ES28bccdraSTSS5UboBvyBC2udcJgg6QFTFywxrqzzDkLeNItGgOlTp0aANnd6nb3Hu8+/7+m3Y3EnNRKXF5kzlPlBuiE2v3vYvwJgw3TzlXOwUPH2GMhGgOlUp0aAO0/UM7GQry0Cp473mvaeV1y9WpHtUqulrXmm6rsAF2oqqr6f5mTBRvg2XP2WgA76dldut2JxkApU6cGQNu2HWBjIV5qo80d7zW3b3ff90VrzVTZAbogT0p37mTB5D1afpIN0njxBkDdUmOgR9AYqNHq1gDI3hUtFsde88BBe3dMKOdwx+touCr8gCo7QBfkSXmNO1kwefftTxy0K1ZsY4+F1x27ii9q0L46NQAiadxz8RCrl9r/JtJuXwAnbSgWjoRfUWUH6II8MbvjTxRsmNt3JL5tt05eCXHHwuuiMVDj1akBEN2m5mIh3t270R77mnYXAlLO4Y7X1DJVdoAOXLly5XtyoH3BnCjYAOn1Pi5IY6Ve6Nyx8Lqb0Bio0erUAMjua21Hj6I9dqzrNyR+bOKozoCy1lDNUeUHZBosAEytdnoA0G5o3LHwumgM1Dh1awB04OAxNhbiPX3mLHu8V7XTVIxyDnesrobD4d+q8gMyTSQSacedJNgw7ezhfeAAXgG0IxoDNVydGgCRdrYAdtLWtumSeiJw31Ws9L05aedEOQFoo8oPyDRyAjCKO0kwee2+AuikVbuZ9DU0BmqwOjUAImlxHxcLsa5egzcA4rV754Q2WeKO19FwVXi4Kj8g08gJwHvcSYLJe+KEvVW7px0UrJkUjYEark4NgEjqXMfFQqzYAri2x4/bWztBXRa54zX1LVV+QKaRE4BNzAmCDfDwYXutTqldMHc8rOnhM3xxg4nVqQEQuXJl4lcAt2/H9tjx2n17Yv/+cvZ4TV2vyg/INOFI+BxzgmAD3Ls3cRdAeq2HOxbyDkBjoKTVrQEQaWdtjKMa26TRFSsSby1O3QO5YzX1lCo/IJMcO3bsB3ICcIU5QbAB7th5kA3OWJ22YjfTojFQ8urUAIi0exVLd9C4472unTeLnHT3hGrOkSNHvq/KEMgU1dXV/8ydINgw7byyU1y8iz0W8i5EY6Ck1akBEGm3C2D5MTQB4iwu3s1+X7E6bQdFWXt+pcoQyBSVlZU3cycHNszijTYCFZsAJWXZcb7IwbrVqQEQWX7MXn8MJ61kT6d23qCgSQJ3rK5WVFf8TpUhkCnC4fCfuJMDG+a6dTvZ4Ix1xw4sdEpGNAZKTt0aAJGHDh1nYyFeJ3W1S6d2ugI6bjOg6vDtqgyBTIFNgFKrnWYnu3ZjF8BkRWMg++rWAIjcu+8IGwuxXt0EiD/e65btSryJktMajMmLz3tVGQKZQk4AenMnBzZMOyudKRlyx8K6fR+NgWyrUwOga9Kkl4uFWOk1Qe5YSB1GE79dRLmHO1ZbI5GeqgyBTCFPwhPsyYFJS/39ucCMl3b24o6HdbvpMF/sYG11agB0TTvbAOPtmLo9dNjeIxQnbaMcrgo/rsoQyBRyApDPnRyYvGfOnmODMl6H7dilhWgMZE/dGgBd087rsbR+hjsWRmTOsDcBcFI/AFl7BqkyBDIF7cnMnhyYtCdP2dsGGK86NUw0Bkqsbg2ArmlnEdu69WXssTAS7R3CfWfxOmkRpaw9w1QZAplCzsKe5U4OTN5jx0+xQRkvTRS442H9ojFQYmdq1gDomqXb9rOxEOuGDdgfoy7tTgCoGRl3vJZGIqNVGQKZIhwJT2BPDkxaurXPBWW89KiAOx7W70o0Bkqobg2Armlrg6yNmADU5fET9hoCnT7joI6AsvaoMgQyBSYAqdPuQh2869ww0Rgosbo1ALqmnY1sNm3awx4L7U8AHNUSGBOAzIMJQOrcf6CcDcp4HbVQRzPRGKhudWwAdM3Nm/ewsRArdsisW7vri06cdM7jRUwANAATgNS5b7+9CYD8ztnjYWKnruOLH9SvAVCsdHXPxUKsTtvLPp3a7aVAdwq443UUEwANwAQgdVIrUy4o4+WOhfZcuIsvfjAiFmjWAChW3AFonLgDAJoETABS5+49h9mgjLWoyGG7dWkmGgPVrW4NgGKl4s7FQ6w0SeCOhRFZ2O2tAXDSG0aYAGgAJgCp085+3UVFpeyx0J5oDMSrYwOgWDeXJL4DgEWAdXvihL07AFgECJICE4DUuWtX4jsATmvYoaNoDFRbHRsAxYq3ABqn7dcAMQEAyYAJQOosK0s8AUDDk8aLxkC11bEBUKx2HgFs3OSsfvbp1O4mY7gDAJICE4DUiQlAekRjoNrq2AAo1i1bbGwEVIyNgOqy3OZOgKfPOGeTMUwANAATgNRpp+MZHgE03jNoDFRDXRsAxWpnK2B0A6xbN24yhgmABmACkDrtTABwByA1DkNjoK/VtQFQrIiNxrl331H2O4u1sNBh7YAxAcg8mACkxorKCrF6zRbx8itzxPOT3xbjJ8wS48a/KiZMfF1MfuFt8epr88VHc1aL5cvxGmAqnIXGQF+rawOgWPfuTVzA8Ips3dp5w8hpdxcxAdAATAAa7qHDR8Ts9+aLwcOfE+06PSrubtsroR27PCZGj5smFiwqEidPoS1wQ125ny+GXlTXBkCxHjiIbbIb4/btB9nvK1anPULBBEADMAFI3jXrNor8YRNEm/t6s0Xervd17CPGPfei2FmG15+S9ehZvhh6UV0bAMV65Cg6ZTZGO4so128oY4/VVUwANAATAPtuKikVjz8xki3mjZEmEiOfnSL2HzzE/r2QF42B9G4AFKvd99hPOGgv+3RavHE3+33FulH+Ge5YXcUEQAMwAUjsqTNnxMTnZzb6ij+RdEfg7XfnUmCwPwesKRoD6d0AKFbaoIYrWvEeOnScPd7rrl69g/2+Yt26dR97rK5iAqABmADU7/adu0WvPoPZgt1U5g97TpQfO8b+PPC6aAykdwOgWGlSyxWteKmfBne8l6XvrrBwK/t9xUr7kHDH6yomABqACUDdbthYIjrc348t0k3tQ72fFnv3HWB/LnhVNAbSuwFQvPSaH1e4YqX9ArhjvezpM/buntBCS+54XcUEQAMwAeBduXq9aNvhEbY4p8sHuj2BSUA9UmOgPgv4wugFdW8AFO+GDbvYwhWr055jp0O7uwDSdsHc8bqKCYAGYAJQ2y2lO0S7jvZe62tqH3zoyejrhtzPCSNinIcbA+neACje0tLEuwGuXr2dPdbL7ttv7xXKs+ecswsgiQmABmACUNPDR46K+x/szxbjTPn4wJGO2uIznb63jS+OXlD3BkDx7tqduFcGPeuWOYk93qtu33GA/a5ipe+NO1ZnMQHQAEwArltRWSkGDhrDFuFMO/3lt9if2etu9nBjIN0bAMV78JC9/ezplUHueK9KTZK47ylWJ/ZRwARAAzABuO77Hyxki69dH+zxlBgxaoaYOv1dMev1BeLtdwrEKzPniilTZ4vBQyeLTg80/M4CvYJIjya4n9vLerUxkBMaAMVrdy+AffuPssd71eXLS9nvKVZqt8wdq7OYAGgAJgBXPVp+rEEr/qkwDxg4Trz7XhEbmDUtEa/NWiB6PTKE/axEPjZgJG6PMnqxMZATGgDFGw7be51ta6mz3mdvSqm/P/cdxUuPV7jjdRYTAA3ABOCqdIudK7r12bnrAPHGm4vZgKzPgoISMWXabNG2fR/2c+uzaMVa9uf3srM280XSzTqhARDnunVlbEzEum7dTvZYL2q3DfDR8pPs8TqLCYAGYAIQEceOn7DdzOeavR4ZKubOW8sGo13pEQFNIrjPr8t+A0awv4OXXbWPL5Ju1gkNgDjpPX8uFmKNLgREU6CoO3YmbgJEOnGRMCYAGoAJQES892Fyz/679nhKLFi4gQ3EZH3v/RWifae+7N9Tl1tLcYUUqxcbAzmhARDnfpuvtGEh4FWLixP3AKANlrhjdRcTAA3ABCASvarmCi1nu079xAcfrGQDsaG+MnNeUn0Gpkx/nf09vOwTHmoM5JQGQJx2FwJiS2D7ayY2b3ZmN1FMADTA6xMA2mSHK7J1OWHi62wQNtaBg8azfx9nt55Psb+Ll526ni+WbtQpDYA4qd9/UVHiooYdAe3vAFi2y5ldRDEB0ACvTwAWLlnOFlnO+x98QixZsokNwsb64YerxD3tHmb/Xs69+7FFcKyLPNQYyCkNgOqS+tZzMRAr1gFExM6dh9jvJl4nLgAkMQHQAK9PAF6YOostsJxjxs1kAzBVPjbA/iZEi5YuZ38fr7rLQ42BnNQAiLOszF5hKz/mzMKWKtevtzlRcuirwZgAaIDXJwBPD7F/6/3ddwvZIEyVk6e8w/69nK/Oeo/9fbyqVxoDOa0BECcVdm78x0sTBe54L0i7ktp5/l/s4EclmABogNcnAN17PsUW2Hg7dXmcDcBU+tGc1ezfzfnsuGns7+Nlx62uXTDdptMaAHHaXQdAV8Dc8V7wkM1tk3fvdm6jMEwANMDrE4AOne29gtfz4SFsAKZS2iDI7tsAg4c/x/4+XvZ9DzQGcloDoLqkRX5cDMRLvfC5491uyZa97PcRr5Nfl8QEQAO8PAGQv7vtgvvYgGfZAEy1Hbs8zv798Q54cjT7O3lZLzQGcloDoLrcs+cIO/7jpT/HHe9mafFjUVHi/f9XrCiN5jDuM5wgJgAa4OUJAHlve3sr7/v1H80GYaq124+AuhZyv4+XPRt2d2MgJzYAqsuTp86w4z9eLz4GOHzE3u1/ukvAHe8UMQHQAK9PADp2eYwtsPH26JXPBmEqXbp0s+07EkOGT2R/H6/r5sZATmwAVJ+rV+9g4yDeM2fPsce71S1b9rHfQ7y0ToA73iliAqABXp8A9Hwkny2w8dIOgNTNjwvEVEnbAnN/N+e4515kfx+v6+bGQE5tAFSXO8vs7XO/d593HgPQAkk77X/pDQH6s9xnOEVMADTA6xOAIc9MZAssZ0M6/yXjhOfs70nw+lsfsr+P13VzYyCnNgCqyxMn7W0LvM5DjwHsdv8rKXH27X8SEwAN8PoEYMZL9tsAPzNyOhuMqfKRvs+wfy/nsqI17O/jdd3cGMipDYDqc80ae48BTpw8wx7vNjdusvd2xEGH3/4nMQHQAK9PAKi/PldgOalr34IFqekCGO+bby1NqiHQ4aPl7O8DI+KJJXwBdbJObgBUn3Z3Bdy+3f1bX9NaBzub/9AeCrRREPcZThITAA3w+gTg2IkTSRXeproL8Ehf+x0JH350CPu7wKtOc2FjICc3AKpPurLn4iFeei4ucxX7GW6xrOww+7vH69Tuf/FiAqABXp8AkE8PmcAWWk5q2DPr9YVsYDbU5ya+wf5ddfna6x+wvwe86mIXNgZyegOg+rT7GODAwWPs8W6QJjfU15/7veOldQLcZzhNTAA0ABOAiFi4uIgttHXZ4f7HxEcfrWKDM1lfm7VATirs34Eg9+xFJ8D6dGNjIKc3AKrPPXvtbQq0YcMu9ng3ePjICfZ3jpcmCTRZ4D7DaWICoAGYAETEuXPnxAPdnmCLbV12eqC/eOvtpWyQ2nXGix+Itu37sJ9fl/TWAvc7wOuGXdYYyA0NgOqTnmfb6Q1AOnnr2/osLt7F/r7xuqlBEiYAGoAJwFXfmj2XLbj1ScV70uQ3xdKlye0PsGhRsRg+YlpSaw+uuamklP35YU3d1BjIDQ2AErm11N7mN254/S3eEyfsrYMoLKTeCO7ZFAkTAA3ABOCqp8+cEQ8+9CRbdBP5YI+nxLQZ70ULOxe415w3b130XX96hMB9TiKHj5zM/uywtm5qDOSWBkD1abcIkqdOu6tBEE1quN8zXmqgxB3vVDEB0ABMAK5bWLSGLbx2vbf9I9GeAc+MmhFd2Dd12rtivCz4w+TVfu8+w+SfSf6K/5r3dewj9h/wbn/0ZHVTYyC3NABKJO37zxW+eEtL97PHO9HTcjJDV/bc7xmvWxb/XRMTAA3ABKCm4597iS3AmfbDuYvZnxfyuqUxkJsaACXywIFjbOGLl9YLuKU/gN1HH6tXb6eCyX6GU8UEQAMwAajpqTNnRK8+g9kinClHjZ3K/qywfocX8UXVSbqtAVB9Uhvc+l6Fmz9/vZgydbYYPOwFkT90knh+yqvindnzxM5dznov/vCRo2LO/KViyrQ3xBNPjRdDh08Rkya/JebMXcP+3uTefUfZz3KymABoACYAtaVb7Q90T+6tgKay/5Oj5NWOu555psvXXdAYyG0NgBK5d+/RWsXv2qJZesTGxQj59JDxYvsOvV8TPHj4iHh2XN2Lf+l/f3rwpOhaodjf302v/sWKCYAGYALAu33nbtGl2wA2UNNlvwEjojsVcj8fTKwbGgO5rQFQIqnDXexdgDlzVotuDw1i4yPeth36iCUFK9nPzbSbSraJzl0fZ3/ueDt3HSDeeWfZ19/B7j2H2c90upgAaAAmAHVLdwJ6PZKZxwGDBo8XJ0+dYn8uaM9yFzQGcmMDoERSwaPCR1f+dov/NWmnzrXrN7Gfmylp464O9/djf966pD//4Yerolsgu2Hff05MADQAE4D6PXb8hBg2YhIbpE0h3Qac9uKb4lxFBfvzwOR0cmMgtzYASiQVvBUrSqO3/bkYSWSXbk9E1/Jwn51uZX6N3snjfs5E9n18lNi5071v/mACoAGYACSWgvi9DxcmPYtP1h69B4nVazeyPwNsmNMd3BjIrQ2A7Li5ZJdo26HuZ/6JfGv2HPZz0+3yVevYn8+uGzZuZT/XDWICoAHhqvBI7uTA2h45Wi4mPj+z3sVIDbFTl8fErDc/EGfPuWeXL110cmMgNzcASuS8+QVsrNi17+PPsJ+bbseOn8H+fHadNuMN9nPdoKw9z6gyBDJFJBIZyJ0cWLcHDh4W019+S3Tp3rhFgr0fHRJ9jQnP+ptOJzcGcnMDoETSRJuLmWTUYULd85F89mezK70FxH2uK4xEnlBlCGQKeRLasycHJpSeVa5dt0m8OPNt8fgTo6KrkLkgviZd6dPrSm+8/ZEo3b6T/UyYWp3aGMjtDYASSdteczGUjDrsnNmhc1/2Z7Nrt55PsZ/rCiORtqoMgUxReb7y/2NPDkxaWitAdwdKtm4X6zdsFkUr1sp/lojSbWWi/Jh7e5nr7ngHNgZ61gMNgOpzzPjpbEFMxvLyzG+de3/X/uzPZteHHx3Cfq4brK6u/r+qDIFMceTIke/Lmdgl7gRB6Aad2BjICw2A6nPma++xBdGu9M49Tci5z06nT+aPZX8+uz4zyrUNwD65cuXK91QZAplEBkoRc4IgdIWbj/BFVmc3eKQBUF3SxjlcQbTryNF6bJ89c9YH7M9nV9oymPtcxxuJFKjyAzJNOBzuzp4kCF2g0xoDeakBUF3S1Xu//s+wRTGRtJfG+uIt7Oem28NHykW7jo+yP2ci6fHBCZcuEA5XhR9Q5Qdkmurq6r+UJ+XT+JMEoVt8xkGNgfIL+N/BaxZv2hLd2Y8rjvU5fOQU9vMy5Ssz32d/zkTOm7+M/TwX+GlVVdWPVfkBOiBnZJOZEwWhK3RSYyCvNQCqz/c/WsgWx7p8pO9wcfqsHrsAXpPuZgwZntxbDS9MncV+lhuUteY5VXaALoTD4b+TJ+eT+JMFoRt0UmMgrzUASiQ1+LHzOt2QYc+LU6f1Kv7XrKisEJMmz5I/J98J8Jq0yRjtYqjDAsYm8uPKyspfqLIDdCISiTzJnDAIHa+TGgN5sQFQIumVPtpvo3uvms2B2rbvIwYOGi+Wr9jAHqebW0vLxDOjp4kO99fsDEj9C56f8qrYu/8Ae5xblFf//VW5AbohhPiunARs4k4chE53oAMaAz22kP/Z4XVpMrBtxy6xY+duca7CudtnHy0/Fm07TluMV4bd2fGvhpFIsawx31HlBuhIdXX1r8KRcJg9gRA6WCc0BvJyAyDoXmVNqaiqqvoHVWaAzlRWV/5enrSP408ihE7WCY2BvNwACLrWT8Ph8B9UeQFOQM7WAvLEnY87kRA61t0n+KKrk15uAARdaXUkEvGpsgKchJwE/Fc4Ej7EnFQIHafujYF6z4uICg83AILuUtaOA/LK/7eqnAAnImdvfx6uCr/BnWAIneb4VXzx1UGvNwCC7lAW/iuyZrxWWVn5I1VGgNOpqqoKyhNbwp1wCJ3iB9v54quDXm8ABF0gvUWGW/7uJRwOZ8uJwIfSz9gBAKHGlmjcGMjrDYCgM6VaIP2gsrqymSoTwO3QXs5Sk7Z1lDO+ZXIAHJFGuAECoS7q2hioh/yZTlbwPzOEukg5Xv7fYZnzC+Q/J1ANoMfEqix4jG984/8H5ZKShU7iou4AAAAASUVORK5CYII=;" vertex="1" parent="1">
          <mxGeometry x="60" y="210" width="90" height="90" as="geometry" />
        </mxCell>
        <mxCell id="Rv-0y1nZuI-blnS7nTe4-13" value="" style="shape=image;verticalLabelPosition=bottom;labelBackgroundColor=default;verticalAlign=top;aspect=fixed;imageAspect=0;image=data:image/png,iVBORw0KGgoAAAANSUhEUgAAAgAAAAIACAYAAAD0eNT6AAAAAXNSR0IArs4c6QAAIABJREFUeAHtvQlwHFee5te9M7Pj2RkfG7Z31rvhHcf6mAjbM7v22jMbYceuY6ye7lFf093Takmt7lH3SCClltQ6m5Sog2pdFCmJkqibh0SJ4ikiCwfBEwQIgEBV4b6vKtyFuu/MLJz17AexqCyg7sr3MrPyQ0RGFbKqMl9+75//7/devnz5ta/hDwpAASgABaAAFIACxSrwyGnyB9ssse9WVUcOVgnRniohGqgSoutVQpRggQaIAcQAhxiIVwlRR5UQrd1WHdm+vU7+l8XmMXwfCkCBIhSoqov9V1VCdH+VEBU5nOCACQAVYgAxUGgMJKuE6JXtQvQvikhp+CoUgAJ5FSDk61WW6CNVQjQC40frDjGAGNBxDCS3CdFTv6qO/Zd58xq+AAWgQG4FHmwgv39vdfSojk/4QlsI+B5ak4gB88SAc3t1/H/Nnd3wKRSAAlkVoNf677VE22D+aPEhBhADBoyBGC4JZE3v+AAK5FCAkK9vs0SPGfCkRyvPPK081DXqOncMWKLu+y3B/zZHpsNHUAAKbFbgxjX/3CcXkg/0QQwgBvQfA50/Pk1+Z3OOw/9QAApkUODGaH8M+NN/YoP5oI4QA4XEgCV2T4ZUh1VQAApsVmCbEH0TXf+45osYQAxUUAy4fnbR84ebcx3+hwJQQKEAHfiH+/yR+Cso8aOFXEgL2QzfqY79vSLV4S0UgAKbFdiY4c8MyQDHCGNEDJgqBrZVR6o35zv8DwWggEKBG9P7mioxoLWLHg/EgCliQKQ9nIp0h7dQAAooFagSor1IhqZIhoA89ACYLwbORv53Zb7DeygABRQKVAnREAAAAIAYQAxUYgzcK0R+pEh3eAsFoIBSgSohulqJJz6OCYaGGEAMbLPEfqHMd3gPBaCAQgEkSSRJxABioHJjIFKlSHd4CwWggFKByj3xkdRRt4gBxAAAQJnv8R4KpCmgRoLYbomu7boYmeO1PH0pPvv05fhcJS27LomLatQFtqG96T/aEPNXUmxqcSy/rovJ6sQyACAt4eMfKKBUQI2TbEdD1LMUixFey9rKSjOpwL+a0aU+NeoD29AOAh5tiM8mCZmtwPDkekg1I0v96sQxAECZ7/EeCqQpoMZJBgBQLTeuvNUmTalRJ9gGfwjYVhNNxJeTHapFg4k3BABIS9P4BwqwUUANowAAqJep15PE90RDXFKjXrANvhAwEVirUy8SzL0lAACbfI+tQoE0BdQwCQCAusnaJyYHt2HSGkNNWnNqYOkcISSpbiSYd2sAgLQ0jX+gABsFAAD6TLIXJ5YxQ6NBIOj5RrGPEBLRZyQZs1QAADb5HluFAmkKAAB0myBX9rVILjXqB9tgdynggdpocGWdDOk2igxaMABAWprGP1CAjQJqmAMuAbDJsivrZO7h+tiyGnWEbTCBgHWvuHaZTe2be6sAADb5HluFAmkKqGEMAAB2yXo6tNqjRh1hG+oDQOv0ci27mjf3lgEAaWka/0ABNgqoYQwAALbJ+vz4EiBAZ+MB3r4uthBCltnWvHm3DgBgk++xVSiQpgAAwBBJdvVAhzyhRl1hG+X3BPzmfMyZTCYXDRE5Bi0kACAtTeMfKMBGATUMAT0A7LNskpDgi02YLliNeC1nG/dZomJildjZ17i59wAAYJPvsVUokKZAOckw9VsAAJ9kvZ4kgd82ip6U7ngtvzVfpIbr85G183xq29x7AQCkpWn8AwXYKFBkAsw4OQsAgF+ypjMFvtwszqtRb9hGUQCxNu5fpZP94I+DAgAANvkeW4UCaQqoYQIAAA4ZUbGLJCHSF0MyJgriNDDw0XOxxZC81qqoArxlrAAAIC1N4x8owEYBAADjTMZw80Ep2ftyszirRh1iG1t7Ax6qj4VaplcvJAkJMKxGbDqDAgAANvkeW4UCaQqokfjRA5Ahg/FblRSXk4NNUyutB9qlIS2e3V4p+3zuijj1drvUc35iqcknJWmLP8qvGrEnpQIAgLQ0jX+gABsFAADKtIP3UAAK6EEBAACbfI+tQoE0BQAAekh3KAMUgAJKBQAAaWka/0ABNgoAAJRpB++hABTQgwIAADb5HluFAmkKAAD0kO5QBigABZQKAADS0jT+gQJsFAAAKNMO3kMBKKAHBQAAbPI9tgoF0hQAAOgh3aEMUAAKKBUAAKSlafwDBdgoAABQph28hwJQQA8KAADY5HtsFQqkKQAA0EO6QxmgABRQKgAASEvT+AcKsFEAAKBMO3gPBaCAHhQAALDJ99gqFEhTAACgh3SHMkABKKBUAACQlqbxDxRgowAAQJl28B4KQAE9KAAAYJPvsVUokKYAAEAP6Q5lgAJQQKkAACAtTeMfKMBGAQCAMu3gPRSAAnpQAADAJt9jq1AgTQEAgB7SHcoABaCAUgEAQFqaxj9QgI0CAABl2sF7KAAF9KAAAIBNvsdWoUCaAgAAPaQ7lAEKQAGlAgCAtDSNf6AAGwUAAMq0g/dQAAroQQEAAJt8j61CgTQFAAB6SHcoAxSAAkoFAABpaRr/QAE2CgAAlGkH76EAFNCDAgAANvkeW4UCaQoAAPSQ7lAGKAAFlAoAANLSNP6BAmwUAAAo0w7eQwEooAcFAABs8j22CgXSFAAA6CHdoQxQAAooFQAApKVp/AMF2CgAAFCmHbyHAlBADwoAANjke2wVCqQpAADQQ7pDGaAAFFAqAABIS9P4BwqwUQAAoEw7eA8FoIAeFAAAsMn32CoUSFMAAKCHdIcyQAEooFQAAJCWpvEPFGCjAABAmXbwHgpAAT0oAABgk++xVSiQpgAAQA/pDmWAAlBAqQAAIC1N4x8owEYBAIAy7eA9FIACelAAAMAm32OrUCBNAQCAHtIdygAFoIBSAQBAWprGP1CAjQIAAGXawXsoAAX0oAAAgE2+x1ahQJoCAAA9pDuUAQpAAaUCAIC0NI1/oAAbBQAAyrSD91AACuhBAQAAm3yPrUKBNAUAAKqnu7Wl9eTwnLzUYg2ITVe8kWvn3eEW3ssVX+RCSzRcfy0eudgshq82xUMtWKCBUWLgwOLitccd0y3lLr+Zmz610+P4EAs00DoGnvQ4Ptjpntyz0+14YKfH8VePe/r/MM2MtfgHAKAOAIir6301rlDLw32z4W3d00SLZXvf1Pyj046rOxcd0zvdDoIFGiAGEAOIAd3GwPJOt+P8Do/j9t2k6Xe18P+vAQDKA4DE6vrg25Pubi0MP7XP+3qnfE/MO67udDtoQMH4oQFiADGAGDBQDOxwO6d2eJx3cocAAEDJALDS6o9e2d49vZYyYi1eHxybatvpdvhh/AAfxABiADFg7Bh40u248LjH8c+4gQAAoHgASBISedfh69TC8BX7TD7idF7e6XYkcdIb+6RH/aH+EAOIgZsx4HEs7PA4/4wLBAAAigOAJCHRvWOLgwoj1uR6/+MzG+aPbj4DdfPdPMFRZsQtYgAxkCMGdngc4acWJv4tcwgAABQFAKsfOn12rc3/EafzCswELQbEAGIAMVDRMeDeNT/+L5lCAACgcADoDkuXtTb/Xw1ODWCwX0Wf9GgZ5WgZwfAQ+yaLgZYfE/I7zCAAAFAYAKwkk5P398wsaQoAPVOrOxedoyY7AWCIMETEAGLAtDGww+28DwAQi5GlG8vaykpzYbat3rc+nQ1c19T8u6fJwxNTzTB/tIAQA4gBxICpYiCw2zf8R0wgAD0A+SFhZT05ub17el1jAEjucDscOPFNdeKbttWDOEecIwYUMbA4+QgAQKMegDZ/7KrG5k8eGJruxQmhOCHQJQo4QAwgBswTA0MAAI0A4Llh17TWAPDYzFQTAAAAgBhADCAGzBkDT/ic/6PqEIBLALkvAawnyaLW5k/3v8PtGMGJb84TH/WOekcMIAZ2LjqqAACxGOE5CDC8sqb5ff/buqfXdrodCSQBJAHEAGIAMWDaGDgAAOAMAM740jWtewDu75tZwElv2pMe13nNc52XaV3vWJgkj44MkYcHBshvZseZ7quQfEXLQMtCy0TLVshvWH7nccfYRnkeGxvWvCxZjvMcAIAzAAxE5CbNAWBwajJLQOg1UFEumBZiQCcx8HBfP7ltby355s+PkFtuO7ixfOOOQ+QHT50h912xca+n+y7byN8+eZrQMqTKQ8v2k3115OH+Aa7loeDxi5NN5DsPfn6zLLRMt1Z9Sn5++DJ5Ylp7ULqZ+z2ONgAAZwDoCouaA8CvBqdw/V8nyfTmyYjycE3U0L20HrBt5zvIX//0K+NPGa7y9c63G8jOxdK2X1S9LDrIHW81pBmtshz0/V/fdYRsu9DOJbaecI6S7z9xKmd5vn3/MfLI4BCX8hSgZRcAgDMAdIfEZq17AAAAHJITDF0vSQ7lUCkWH7L3prWyN5ut8v+7P2tkrvvdRxtzmm2qPLRn4KGuPrblWXSQHzz9RUHl+c6Dx8mO+Qm25SmszgEAdDZAnoMAAQAw3wLIXA/JAWUoLImaRqcfPnO2IIP7suV9mDwxNcpMG3p9nbbuUyaf7/WHz55lVhZ6Pm+/ZC24LLSsvzx1jWl5CswxAAAAAAy5wJNFDycsygBT1iQGHneMkltu/+oaez7DpZ9X1V1nVtZ7a9uKMlxadtpFz+pcv+3V2qLKQ8cssCpLEdsFAAAAAABFnDB6OGlRBkAA9xh4oL27KIOjAHDXoUvMynnXR5eKLs8D7T3MyvPdh08UVZ5v/eITZmUpIp8BAAAAAIAiThg9nLQoAwCAewzc32wvyuAoANz53gVm5aTbLqQXQvmd+691MisPHdyn3Fe+9/TyhQ7yDgAAAAAA0MGJqIdkgDIALLLGAL31L5+pbf787uNNWbdX7jl397GrRZeHzhFQ7n6z/Z7eArn5+HP9/50HPmdWlmxlzLAeAAAAAABkODH0cHKiDDBk/cTAooPcuu2zokzu193sRt7TUf25DHbzZ7duP8b01sSff3KlqPLc+c55PdQtAAAAAAAAACAGEAP5Y4C26Dcba7b/6S1xrDWlI/uz7X/z+l+cbGZanscmRtImRtq8f+X/9LZE3hMUZakLAAAAIP+JnyV4mJ5Q2CfqBTGgrxigs9z98Jn897r/zT1HySND7Ce7eWRwkPzNPxzNCwE/eu4sl6mB6V0Pt/wk/50SrGGkiPMGAAAA0FeSKSJ4ASDoIkcMcI6B38yNE9p9rZx2V9m6pdfCeZh/Kk/QWfXoLXXKMqTe0zLSwYK/4TjpzvYrVnLrvZ9mLM+3fvkJ01sjU5oU8QoAAAAAAIo4YWA4nA0HdaPP85M+cOeXp5rJHW83kNtfryf0GviDVna32eWLgwc7ejbK8JPX6wmdiphOtPPoqDYP4aE9JdsvdpC7PrhAaHl++t55UnXuui4emLRJRwAAAECfCWZToMJ4YbyIAcQAYkDdGAAAAAAAAIANxABiADFgwhgAAAAAcOKb8MRHS0rdlhT0hJ5GjAEAAAAAAAAAQAwgBhADJowBAAAAACe+CU98I7ZWUGa0shED6sYAAAAAAAAAACAGEAOIARPGAAAAAIAT34QnPlpS6rakoCf0NGIMAAAAAAAAAABiADGAGDBhDAAAAAA48U144huxtYIyo5WNGFA3BgAAAAAAAAAAMYAYQAyYMAYAAAAAnPgmPPHRklK3JQU9oacRYwAAAAAAAAAAEAOIAcSACWMAAAAAwIlvwhPfiK0VlBmtbMSAujEAAAAAAAAAAIgBxABiwIQxAADgDQBdIaltW/c00XJ5cNDpMGGwo/WgbusBekJPxICBY2CXx9n/NbX/qoQoKXfZ0RD1UGPmtaytrDQTTn+R+FrzsGOJaLlMzC6P+MJJggUaIAYQA4gB08YAegB49wAAAEx7sgG4AJ2IAcSAnmIAAAAAgCGjBYQYQAwgBkwYAwAAAABOfBOe+HpqhaAsaBUjBrSJAQAAAAAAAABADCAGEAMmjAEAAAAAJ74JT3y0uLRpcUF36K6nGAAAAAAAAAAAxABiADFgwhgAAAAAcOKb8MTXUysEZUGrGDGgTQwAAAAAAAAAAGIAMYAYMGEMAAAAADjxTXjio8WlTYsLukN3PcUAAAAAAAAAACAGEAOIARPGAAAAAIAT34Qnvp5aISgLWsWIAW1iAAAAAAAAAAAQA4gBxIAJYwAAAADAiW/CEx8tLm1aXNAduuspBgAAAAAAAAAAMYAYQAyYMAYAAAAAnPgmPPH11ApBWdAqRgxoEwMAAAAAAAAAgBhADCAGTBgDAAAAAE58E574aHFp0+KC7tBdTzEAAAAAAAAAAIgBxABiwIQxAAAAAODEN+GJr6dWCMqCVjFiQJsYAAAAAAAAAADEAGIAMWDCGAAAAABw4pvwxEeLS5sWF3SH7nqKAQAAAAAAAABADCAGEAMmjAEAAAAAJ74JT3w9tUJQFrSKEQPaxAAAAAAAAAAAIAYQA4gBE8YAAAAAgBPfhCc+WlzatLigO3TXUwwAAAAAAAAAAGIAMYAYMGEMAAAAANlP/En/Crk8HyfHnSHy/rifHBj3MVneHfORU7MhIrhD5KwvQM74A+S436e75Qt/gNQFguR6IE6coRU9kTzKgpYlYgAxUGwMAAAAAOkAMBtYI2enw+SZgQWyrXua6fLbURf5wOUme9yzZKfbYbhlj2eWWPxB4ggtF3vi4ftI1ogBxIDWMQAAAAB8CQCu0PpGS//Bnlmmpk+h4tlhF3lvcZHscjsNZ/qZQOUpt5N86vOSKfQKaJ3QsH+YKmKg8BgAAAAAkqTLkyA7+ueZG/99PdPkvVk3ec49VRHGvxkGnnVPkSv+CBJQ4QkIWkErxIB2MQAAMDsANMxGCTVm1t39D/XNbLT6N5tmJf5/1Ocl7tA6Ept2iQ3aQ3vEQP4YAACYGQAsMxGynfF1fgoWD/XNkgNuV0W2+rMBzAfeRUBA/gSEJA2NEAPaxQAAwKwAQEf38zB/2rvwrnvRVOafgoKPfR7i1e7kRmKF9ogBxECuGAAAmBEAWqck5wM9M8y7/Wnr/715tynNPwUB5/2hXCcgPkOCRgwgBrSKAQCA2QBgyLFEnu5fkFlf86fb3z3qqpiR/ilDL/Z1l8dJxoK4TdCEk6xoldSxXwBFoTEAADAbAJwZCXNp+VMAeMu9YOrWfwoW6HgArQxwZnGJ9AwHia3Ph0VlDbqGAmRqIaFZ3WoVU9hv+twpBtYDAGAmABicXCI7e9nf7kfN/+VxF3nSgJP7pExb7df+kMzVKGz9PvLrZ8+Rb/zkELnltoNYGGnwjZ8cJPfvrCUtndpBnoENiOs5AZ22gAsAwEwAcH4syq31f2DRXKP+8wEDnSiIVwJqsrrIrT/9GKbPyPQzAdU37zhM6hud3OqYVyxhP1tMs5LqGABgJgB4c9DDBQDobX/PVOhkP/mMPtvnVI/FMPu5AVy+VXJb1XGYP0fzTwHB9/7+KC4J4Pq7kQABAGAmAHiMwzS/tPt/j8Oct/1lM//U+q6gxDw51FxywPw1MP8UBHx6dpB5HaNVXtGtcp7xAwAwCwDYJiUurX8KAG/Po/s/ZfrK11p/kPnJ/cZHHQAADQHgudeuMq9jAAAAQKUYAACYBQAujsW4AcBbLoz+Vxp/6v1Rn4e5ObzyTisAQEMA2PHSJeZ1rFLyRzlxuQIAYBYAEEb53f73mnset/9luAPiPa+LedL96PMeAICGALDv/XbmdQwAQA+ASjEAADALAJzmCAD73LMAgAwA8JZ3nrk5dA74AQAaAkDjdfZ1rFLyZx6LKKfuQQUAYBYAODUS4nYJYK97DgCQAQD2cwAAmnSf3XsVEKABBNB5F7wh3Sd9GD+6/lMxAAAAAKj/KGAAgCMjAPECgHnvCqHXolMj0/HKfiKkh56uxy2AMNaUsRrlFQAAAAAApAbpsX7lBQCprlc6IRC9K+DpvY1k16tXsDDQgF7zv9Q6i5Y/zN8opq8sJwAAAAAAYG38qe3zBoAUCOAV3fKIAcRAhhgAAAAAAAApg2b9CgBAEs6QhJUtMrxHTwLPGAAAAAAqDwCeWpgkb7dbyRefnyP1BwVy6cBpYvmkhnx87ip5Zbg/4/V51uZPtw8AAAAAABADOooBAAAAoHIAYG9fD2nd8xkJ/fAFIt76bMYl/u3nyNiDB8iZkw2EggIP40/tAwCA5K+j5M+zpYl96bNnAwAAADA+ADw7M7Zh/NTcsxl/pvUz97xO3m9q4wYBAAAAAAAAMaCjGAAAAACMDQCvd3WR2V++XpTxK2Eg9t3nyKlT57lAAAAAyV9HyR+tcn22ynnWCwAAAGBcAHintZ0Ef/RiyeavBAHhaC1zCAAAAAAAAIgBHcUAAAAAYEwAOHyxmYT/9reqmD8FAXr54MPGVqYQAABA8tdR8ufZ0sS+9NnbAAAAABgPAI4Jl0j0e7tVM/9UT4Dnzj3kmekxZhAAAAAAAAAQAzqKAQAAAMBYAEBv7St2sF/K4At5tXzC7lIAAADJX0fJH61yfbbKedYLAAAAYBwAaHj/rOqt/s1QQHsBWN0eCAAAAAAAEAM6igEAAABA/wDw5OIkadx/grn5p2DgQLuVyWUAAACSv46SP8+WJvalz94GAAAAQN8AsGthgth2f8zN/CkE1B6xAAD0mbBgJKgXxIB6MQAAAADoFwCemR0jfTs+5Gr+FADaXvkUAKBekkHChpaIAX3GAAAAAKBPANjtHCZjD73D3fwpAHQ9ewgAoM+EBSNBvSAG1IsBAAAAQH8A8NLoIJm+9w1NzJ8CQPeugwAA9ZIMEja0RAzoMwYAAAAAfQHAnsE+Mv+LfZqZPwWAq2+cBADoM2HBSFAviAH1YgAAAADQDwDst3cS7+2vaGr+FADoXAOpJ/ip+Yq7AHAXAO4CQAzoKAYAAAAAfQDAm309JPh36szrT0281IVOMvTqQB8AQL1WBlps0BIxoM8YAAAAALQHgBc9U2Q2EiLO8x0lG3ephr/5d+O/epuJ+dOeBPQAoPWno9YfTFmfpsyzXgAAAABtAeBVzzRZjIYJrYdELEamTzZqCgGf1F0FACAx8kzC2BfiTasYAAAAALQDgDe8M8R/w/xpPdBFjsXI3KF6TSBg6LH3mJk/egDQ+kfrHzGgsxgAAAAAtAGA93yzJBKLbph+yvxTr1I0Shb2n+EKAZ47XiH0DgQ1B/1t3hbvSwDTriVSe9lBjpzsI4dP9GKBBogBRjHw8el+cr55miz4VrRqzZeyXwAAAIA/ABzxzZF4NLP5pyAgHouSxReOcYGA0A9fIG/a7EzNn3cPwOGTfeTWuz4mt9x2EAs0QAxwioEf3XOMNFydKsWMtfgNAAAAwBcAjvvmiZSl5Z8y/9RrJBIh3iePMIWA4I9eJO+0tjM3f54A8MFn3Uj4nBI+AAuAuTkGvvGTQ+TCtRktDL3YfQIAAAD8AKDa79oY6Jcy+EJeg6EQ8T/wLhMIoN3+++3sW/6pSwE8LgEMT0bJN+84DAAAACAGNIyB27efIIuBtWINmff3AQAAAD4AUB9YzHi9vxAI8AWDJPQP+1WFgIWf7yWv9vVyafnzBIBDJ3qR+DVM/Jtbg/jfvD0ETVYXb0Mvdn8AAAAAWwB40u0gV4Oeks0/BQhur49E73xVFQigzxmgzxtIGTOvVx49AL/d3wwAAAAgBnQQA58LQ8UaMu/vAwAAAOwA4Cm3g3SEfGWbfwoCXC43iZc5W+DIw++Q55wj3M2fQgYXAHjzGpK/DpI/Wv7mbfmn6v64ZZi3oRe7PwAAAIANADztcZKekF81809BwNzMPIn/7Qsl9QT0PvkReWZuTBPz5wUAn5wZAAAAABADOoiB1s7FYg2Z9/cBAAAA9QHgTfccGY4EVTf/FATMjE8R8Tu7i4IA628/IbvmJzQzf14AMDEjkr+58wgMQAcGkGoJ4tV8vQE/e/A08QTXeRt6sfsDAAAA1AWAR/pmyGzky6l9U4bN4nWqe4SI336uIAhofv04eXJxUlPz5wUAdKYxeu0RpmM+00Gd66POv3XnYdJs0/0AQAoLAAAAgHoA8EDvDBn1hZi1/DeDhKO1Jy8AXDpwWnPjp+bPEwAoBJw9P05+eM8xgAB6AhADHGPg5w+dIS123Xf9p3oKAAAAAPUAwLYY4Gb+KRhwnG/PCAGx7+wmZ06c04358wYACgH0PuSWzkXyRcM4OVEzggUaIAYYxUD1xQliH/ATb8hQzzsAAAAA1AGA98dLv88/ZealvNInCE6duZoGAdHv7iaf1lzRlflrAQA6e/BIqtWBVzz9DjGgjxgAAAAAygeAX/XMEFcowr31nwIG+gTB2YN1GxAQ+sFvycHLLbozfwCAoVpGMCh9GBTqgW09AAAAAOUDwHvjLs3MPwUB9AmCzvct5MB1qy7NHwAAAECPDGJAZzEAAAAAlA8AHS717/dPGXuhr7QX4IR/QbfmDwBA8tdZ8kfrmm3r2gj6AgAAAOUDQDCsXfc/rT8xGiWf+Od1bf4AAAAAAAAxoLMYAAAAAMoDgId7ZzTt/o/FouSgd1b35g8AQPLXWfI3QgsVZWTbSwEAAACUBwC7B+c0A4BgNELe9s4YwvwBAAAAAABiQGcxAAAAAJQHALsGZjUBAG80Ql7zThvG/AEASP46S/5oXbNtXRtBXwAAAKA8AHisjz8AzEdC5GWDmT8AAAAAAEAM6CwGAAAAgPIAYFv3NPFynAPAGQmR33qmDNXyp+YPAEDy11nyN0ILFWVk20sBAAAAlA8AbS4+UwCPhQPkObfTkOYPAAAAAAAQAzqLAQAAAKB8AHiXw0RA3SEf2eUxrvkDAJD8dZb80bpm27o2gr4AAABA+QCwvXuaTPvZPQXQGvKRpwzc8sclAJg/zB8xoMMYAAAAAMoHADoO4J0xNtMBXwq4DdvlnzL+1Ot+77wRWgUoI1qGiAFzxAAAAACgDgBQCLg871PtlkD6lL/awGLFmD8uAaAFqMMWIIzeHEafrZ4BAAAA9QCAPhWw3xMsGwKn7VRYAAAgAElEQVTkWFT38/qnWvXFvKIHABAACEAM6CgGAAAAAPUAgPYCbEBAuHQICEQj5EPfXEW1/FOQAABA8tdR8s/WKsR68/QKAAAAAOoCAIWAve45ctrvIqFo4Q8Jol3+fSE/ecGg9/inTD7XKwAAAAAAQAzoKAYAAAAANgBAjXC3x0nqAotkOkePAIUEe8hH9htoTv9cJp/rMwAAkr+Okj9a+uZp6WerawAAAIAdACjN8CXvNPnAN0dO+hc2lqP++Q3Tf/LGLHnK71bqewAAAAAAgBjQUQwAAAAAfACgUk29mOMCACD56yj5Z2sVYr15egYAAAAAAEAxJl7OdwEAAAAAAGJARzEAAAAAAADKMfVifssTALyhdVLf6CTPvd5E7t9ZS+59QsACDRADjGLggafqyCvvtJJmm8tIPSgAAAAAAKAYEy/nu7wAYNqVIA/sqiO33HYQCzRADHCOgRfevEbcgTUjgAAAAAAAACjH1Iv5LS8AePz5C0j6nJM+YAuwqYyBAx93AgCqhCgpZdnREPVQY+a1rK2sNBNOf5H4WvOwY4nwXs6MhAm9R5/Hss89W5ET+RRj9pm++xaHZwG02Bdh/jB/xIDGMXDrTz8mU/MJvUMAegDM0gNgGeUHAK+55wEAGW5vfM/L/vrgW4dtSP4aJ39lSxDvzdszQMfg6GjAX6ayAADMAgCXx2JcWv+0h2G/CwCQqQfgqM+T6SRUdd3u15oAAAAAxIAOYuDTLwZUPbcZwAQAwCwA0DUp8wOAORd6ADL0ANT6g8wTwp5325D8dZD80fI3b8s/VfdfNIwzP9/LhAIAgFkAgI452NE7zwUCXphYAABkAICuoMQ8IQgXJwEAAADEgMYx8I2fHCSDExHm5zsAQIXBgmYYBEgB4L1BHxcAuL93mjztdgICFBDwjHuKLIbXmSeERd8quf2+EzAAjQ0g1QrEqzl7Ap585TLzc71M86flQw+AmXoArnIcB/AGxgGkAdBRn5dbQujo8ZDv330UEAAIQAxoEAN3//oMccyy7+0DAKjQ+jcTANBegN19C1x6AZ4emUszwEyD4sy0ri8kcwMAmhiGJqJk9xtN5Ht/DxBAK9ycrXDe9X779hOE3v8/617meq6XAQLoATAbAJwbjXIBAHo3wN5FQACFnPc53P6XKwk45+QNIKBQgAUaIAbUjwEDmb4STgAAZgMA2gvw8qA7xmNCoB3Dc+Qpk48FoMc/ElpSnnR4b56nraGuUdd6jgEAgBkBoHtKnni8b45LT8CrM+a+I+CcP6TnBICywaAQA+aNAQCAGQFgYnZ5xO6Wya96ZrhAwF6TDgg85HMTr3mTC4wFdY8Y0HcMAADMCgD0mnGLSyT3c4CA7T3T5FWTjQd41+si7hD72/5yXfvHZ3j2PGIAMZAjBgAAZgYAGhi2RZk8wuFywHY6KHDBHFMEf+L1wPz13fJByxT1gxjAPABfPnHQLBMB0QGAdKGXAJRU6Aiskn2jHi6XA16cmidPu6cq8hZBOtnP5YDuZ/9C4oP5IQYQAzQG0ANg9h4AJQg0LcTJMwPs5wn4df8M2bcwT55SzJRn5DkB6Eh/OtGPM7SCxIrEihhADBglBgAAAID0a2R00Fq7SyLvj/vJo4wvDTw8OENenVsgLyzOGLJH4FXPLLH4g2QyZJiJP4ySmFBOmChigH0MAAAAAOkAoOwRoDAw4l0m1xZEUjcbIV9Mh8kxZ4jJ8tl0gJxyBclJr58c9/rIMZ+XHPf7dLWc8QdIfSBIrgfixIHWPhI0+wQNjaExyxgAAAAAsgOAEgbwHjohBhADiIGKigEAAACgogKaJS1j22iNIQYQA5UUAwAAAAAAAK0axABiADFgwhgAAAAAcOKb8MSvpFYMjgWtcsRAaTEAAAAAAAAAAIgBxABiwIQxAAAAAODEN+GJjxZTaS0m6AbdKikGAAAAAAAAAAAxgBhADJgwBgAAAACc+CY88SupFYNjQascMVBaDAAAAAAAAAAAYgAxkB4D3vB6MOhyX4gPWy1Sz+ULcmd9q9xZ0y/Za3uk7vr2ePelxuhoz/mQa/G6P7wWgX7p+hlEDwAAAMCQgQviL434oRt0yxUDyaAn3Cj1Xq6TbYJXtgmkkCVhs0TFgZbLQU942CDGl0sDM30GAAAAAACQtBADZo+BkDfaKnZfaJBtwlohpp/lO+tS78W2gDc2Y3Y9DXL8AAAAAJK/QU5WM7VMcKyceiq84eRydKz3mGwTxCymXlAvwKbfxqNT4604r3SfWwEAAADdBynMgJMZIGGb7lyIS72NpzeZdymGn/E38RF7E2JK1zEFAAAA6DpAYf4wf8QAmxhYknqvnGFl/qntxka6WgABus2xAAAAgG6DE4mfTeKHrtCVRMd6P0uZNOPXZGhmphcQoMs8CwAAAOgyMGFSMCnEAKMYCPgizbJNkBgb/1eXBewWvy+wFAcE6C7XAgAAALoLSiR+RokfCRix7gsn16TO+svczP/GrYTxoevXEX+6iz8AAABAd0EJAAAAIAYYxYB/wUdv9UvyBgDZZkn4A0sxQICu8i0AAACgq4BE4meU+JF4Eec0BqTeKxb+5v/lhELR8Z4OxKGu4hAAAADQVUACAAAAiAFmMbDuk20CXb66Ps/xvdhVPwoA0FW+BQAAAHQVkEj+zJI/6tns5hNw+blf+98EG0l/YHnJ7PWgo+MHAAAAYAw6OiEBQAAgZjEQGe8/u8mQufcEhOZdYzjfdJNzAQAAAN0EI7PEh4SDOkYMJEl84Jpm1/9T4BGZHOxCXejmfAQAAAB0E4wAALR+EQMMY0DqvXgxZcRavcaGrTYAgG5yLgAAAKCbYETyZ5j8kXQR52L3+ataGX9qv/GBlm7Eom5iEQAAANBNMAIAAACIAYYxIHc30BkAuV/3V+4z3tfUAwDQTc4FAAAAdBOMSP4Mkz+SLuJc7rlwRWnGWrwX+67guQD6Oc8BAAAAJEaYI2LADDEg9l66pIXpK/cp9V7uN4PWBjlGAAAAAMnfICcrekj003IyZF2IPVcuKM1Yi/diz4UhnG+6ybkAAACAboLRkEkVyQzxY5QYEAeaz2lh+mn77DqP2QD1A7IAAAAAErhREjjKiVgtJwZiAy31aWasxYDArvrJco4Bv1X1HAAAAAAyB5Q7tE663AlydjpMPpzwk70jHvLC8CJ5fsil+rJv1E0OzXrJkUU3ed/rIgc8C2S/d153y3teF/nY5yE1/gCxBUXiCq+h10I/rRnURZ66iA2112kPALXTMPHMOVcDXQAAAID0YBzxLpMjkwHycN8s2dY9zWzZ3j1N9jkXyX73PHnK7SA7Dbjs8jjJYZ+bdAYlmE8e89EguaFONtVJbMimPQDYaxcQC+k5V0M9AAAAgC+D0RFYJe+N+wg1ZpbGT7e9x+Eie9yzhjT9bKDypneB9IdkmM4m09EwuaEuNtVFdLRbcwCQ7DU+xAQAgFQJ0azLjoaohxozr2VtZaWZcPqLxNeahx1LRMtlYnZ5RHkSNs7Hya972bb4qfE/2DtL3na5Ksr4lUDwpNtBzvgDhF4+UeqL97pJeKaul+h4n+YAINstYZwPujkf0ANg5h4AbzhJPneGmLf4qfk/MTBH9nrmKtb8lSDwtneBzIYwPgCJXjeJfgN8YhNDmgOAZBVkxIVu4gIAYGYAODIZ5Gb+L3tmTGH+KRDY55kjc6FVU7c4keh1k+g34jDiGNH+NkCbsIa40E1cAADMCgBfTIe5mP9DvbOmafmnzD/1+rZnAZcDNl2HRvLXLvmHpifPa34XgE0gPvSO6aVhAAAwIwBcckRn7uthP9iPdv1X8jX/lNHnej3l8+vlZEc5TA4jodkpzR8HTAHEH1xBLOojFgEAZgOAAUeC/KZvbpmaM+vllUkXoQPjchlkpX9Gj79bo9sEFwNr5JrNRb5oGCcnakawqKzBmXNj5Gr7PHH5jHGpJzw3d1kPPQD+QAIAAADAXQBa3Anw2XCAufFTsKA9DJV2q1+psPKGd57QAZc8u7+FCxPkh/ccI7fcdhALYw2+f/dRcqx6iGv9lhJLofnFJj0AQMAvr5ZSfvxG9RyCHgAz9QDQ1v+jHG73owCw17Fo6pb/ZliwBkVuBnGqbhSmz9j0M4HVR5/3cKvjUsww6Pa36AIAvFGplPLjNwAAJnMDmGUegJoxPgP/KAC84Z4HACgufxz0urmYw9R8gnz7ro8BABoAwDfvOEyGJqJc6rkUMwy5gx26AIDFMOYC4NwjmCVe0ANgph6Aff0eLt3/j/XPGnZ6380td7X+3+V2knkOo5/ptf5MrVOs43Mp5INj3boFgIAn0qULAHD7vVkMSbfaVWh5AQBmAYAhxxJ5uIf9bH8b3f9OdP9nAoeOYJx5gtv7/nUAgAat/xRg7Xr1CvM6LtWM/D6xXw8AEFzw4nkA6AHAIECegwA7JiQurX8KAG/NL6D7X9H9n4IBwR9kbg573m0DAGgIADtfvsS8jksGgEBiVA8AEJ5z4YmAAAAAAE8AOD8W5QYA+xdx/T9l+srXIz4Pc3M4+sUAAEBDAHj7iJ15HZcMAKEVpx4AIDQ3N1nqMeB3qg4ExCUAs1wCqB7hNwDwNQwAzNgD8q7XxdwcRpwxQgejpbqk8crn2n9K584BPU/8tL6gCwCYmRqFkatq5KXmFQCAWQDg1Aifh/5sjAGosEf9Klvx5bx/0ztf6ola1O/eO9oFANCgF2DPO61F1ZMGJhiQbcKy1hAQdk4OaXDseq8bLcoHAAAAqD8j4F63OZ76VywM7OcEAN5QktDR6N/66RGAAAcQoD0ub3zUQdwB3T8BUpRsQlR7ABjtBwCgB4BUCZnHAexoiHqoMfNazDAPAN8eAABAJjjgBQCp5Oqck0n1xQny4efd5K0jdiwqa/DBZ90b0yyPTbO/uyNVp2W+rsk2was1AEQmh3rLPA4tWsuVuE/0AKAHAD0AmcyaxTreAIAkq4tWlq6MQ7YJs1oDQHSivxuxqYvYBAAAAAAALMw+0zYBALpIeroyZN5GKNssk5oDwFhPF+/jxv4ynnsAAAAAACCTWbNYBwDImIRMbci8jUmyWYY1B4BReyfv48b+Mp57AAAAQOUBwCvD/eT42Yvk2r7Pif25I6Rv54ek/cWjpOGjs+TglRaya34i4216LExfuU0AQMYkBADgOCmMZKvt0xoAYkPtAACOdZ4DfgAAAIDKAIAnFyfJwcstZOSRd4l467M5F/+PXyKN+0+Q5x3DXEEAAAAAyJGMuYCQZK/t1BoAxME2AAAAIPMdAPTOANwFsETUniWwku8CeGF8kAw+/n5O088EBb7bXtroKVC20lm+BwAAADQHgM76dq0BID7QgkGAAAAAgNomn2t7lQoA77ZcJ547Xina/JVAcP79L7j0BAAAAABaA4DYda5FcwDoa+rRWgfsf+NcxCUAXAIw7iWAI+ebSeT7z5dl/ikQuHTgNHMIAAAAALQ2HrH7wlWtAUDsaezTWgfsHwBwc6IhTASkLgTwmAnwc+ESiX5vtyrmTyEg/u3nyMfnrjKFAAAAAEBr4xF7Ll7WGgCknksDWuuA/QMAAADd6ho/fQ7Al88CYDsToHC0dsOwU613tV6DP3qR6cBAAAAAQGvjkXquXNAaAMTuC8Na64D9AwAAAAYEgNojFtVa/ZnAoeHDs8x6AQAAAACtjUfsb2rQHAC6GsZK1EH2BRJjAXegOTS/cDW44Lke9Ebb/KGVuRK3x+XOCx2XDWMAMAZA/V4AFpcAnnJNkJY9x5iaPwUCeovgrgU28wQAAAAAWpuBONBSrzUAyF3nHAXr4BMHo2P9tVLXuUuyTaBPMySZFslaMyn1NdaFZ6av+oNriYK3r4/R+FqBCAAAAKB/AKCGTCf0ydRiZ7Hu3ZZ2Jr0AAAAAgNbGFBu8XpfJQHmukzrrZvLpEPBEu6SexrOyTZCLL5vFGx22XvIFl2P59mPyzwEAAAB9A8Az02Ml3eNfDhic+6gaAGDulpFWLTLm+xWHbbXFG2rmVnep25Hsta5sxusPrUbiA82CbBNWS93+zd/ZBV9kesqWbV9YnwQAAAD0CwC7ncNk7MED3Fr+KWi4/vKnAAAAAHMz1sKAYqOdmgOA3Fnjy3TsAb88Ktlq+28aeJbu/mI/j/dfa/aF1lYz7dPk6wAAAAB9AsCLowNkqmo/d/OnEND99CEAAACgIgEgOtanOQAk7JbIZuMN+OLdktUyXay5F/p9qeeS3Q8I2BzTAAAAgP4AYF9vN3Hd9aom5k8BoGsXAGBzgsb/lTF+IToxqPkYAHpdXxlP/uCyM2G3jBZq5qV+T+xrxBTE6WAPAAAA6AsA3rLaiPf2lzUzfwoAV946iR6A9ESxueWA/w2qT9Q5ov1dADZhXQEAK2L3eW5zE0QmBwEBX8UuAAAAoB8AeL+pjYR++IKm5k8B4NSp8wCAr5IEzL6CtIg4xzWfB0C2CsQXWtuIq1jv1Wa5/XTGW/tKbenn+Z0c8MXCCgAxc3wDAAAA+gCAdwb6VJvXn5p4qQudEvil0UEAQAWZHpL9V5cvQtMObq3trEbc8QUJ+GVCR/yLdXsTUvspngBAxP6mXsTERkwAAAAA2gPA694Z4ouEybR1oGTjLtXwN/9u5JF3mZg/fcww5gH4yoiQgLXRIjI3q/2zANpOEb87TKL28x3x6heIdJ0vAMg2YT3gi8URg7gNcGM6YDwMSF0IKGYmwAPeGRKKRm5Oy+y8ZNUUAg5eaQEAoPVfsd3C4YVFzZ8GKLV+TgILvlXx3Bv+LwHgJNceANozER3pRC9AGAAAAGDwPIBCAeBD3xyJxqI3zZ/2xtBl2nJNEwhgdfsfbf3z7gHwhtZJ7WUHeXbfVXLfzhpy7xMCFgNrUPWEQB7/7QVy+EQvmXYlSgaUoMvbkrVrXqX77vNtX7r2KQlNjsxR86eL3HaCOwBI9rpF9AAAAAAAGgHAJ/55Ika3mj8FgEQsRmaOnucKAfN/v5e8MM7m2j9vAJhZXCIPPl1PbrntIJYK1OCH9xwjHb3ekiAg6A615zNo1p9LV4+QeOupcS0BgB5jwBtfMjkEYAwAxgCo2/1fyOOAvwi4Nkw+1eLP9CpFo2T+rbNcIIDedvhqXy+zrn/eALDz5Usw/go0fiXQ/d29n5fUExBwRzpZG3y+7YtXDhKx4a2N7v+NSwBtn3PvAaBlDM/OOAEAX1P3r0qIknKXHQ1RTyZTYLUOYwDUhYBclwDqA4tbuvyz1SvtIXC9/DlTCPDcuYe80dnJ3Px5XQKw9vlg/hVu/ikQOHSit+heAL833pfPoFl/Ll56j4i1e5dSPQBSizYAEBvr7gMAqOv/XyvX/OnvAQBLZNih7nJqJERo65zHkgkAnnQ7SFPQU7D5p6AgEokQz5OHmUDA7C9fJ68M93Mxf14A8MGxbgCASQDg18/UFw8AgcQIa4PPt33xwgESt7yc/AoAjmnSAxAfaOkHAAAACHoA1AWDzQDwlNtB2kPeos0/BQHhcJj4H35fVQiYvO8t8tuJIW7mzwsAXj7QCgAwCQD8/KHTxQOAf9mRz6BZfx5veHNj8N9NALj2mSYAIPZeGQYAAAAAACr3DCgBYJfHSbpDvpLNPwUBgWCQBKveUgUChh95lzw7NcrV/HkBwP6DVgCASQBg+46a4gEgvD7H2uDzbT9e/1oaAMhaAUDPhZIAIOgNLwTn5gcjzjFbeGKoJewcbwvOznQGfOKAL5w00lMHMQiQGgx6ANj0ADzjdpChcKBs809BgNvnJ6Gf7S0LAnqe+og8MzfG3fx5AUDdFScAwCQAsP+QtWgA8IWTPtkmrOYzaZafizWvpgEAvS2Q5f6ybVvsOj9WYA9AMjg3Z5P6rnbI9hqqX47yWjxi9+WroRmH4A+tb3nqYYH7K6VeS/kNAAAAoK75p+4C2O1xkslwUDXzT0HAgttDoreV9rCg9hePkqcWJjUxf14AsOhfI7ffdxIQUOEQcOtPPybDk9FSkn5Mtgnx3CaWy+DK/0wUXkoHgOajOQy1/P1lPdau+sk8hrwWmna0yJ21Y1m3kQsG7IIrOt5z0h9ed+XZTyn1qMZvAAAAAPUB4B3PApmJhFQ3/xQEzM3Ok/gPintoUNMbJ8iTi9qZPy8AoInmereHfPfnnwACKhQC/vr2Q0S4MFGqAazINsFfkqHlMrtCP7NWp5n/xm2AmgFA7XQ2Y/YHl0fF7gvn1dGpZiLoWryYbV8argcAAADUBYCd/bPEo5jaN2Xaar9Oj08R8Tu7814OoA/3qT1i0azVT40/tfB8FkD/WJg8s6+R3HrXxwCBCgGBb/30yMZsgO09nlLNf+N3sk2YV8fYSmidt5/eCgBNH2vSAyDZahcymW/AG70s2yxTKmu0HBu2fuoLJ/U0+RAAAACgHgA83DtDpvzsWv6bIWJmcJyI334uKwTEvrOb2aN9U6ZezCtPAFAmNsesRIYmolgMrMH4jEjo9M7Kei31vWRV3dwKN/DW4xkA4Ejhvy+0p6GQ79kt3s0a+j3Rc7JNcKps/jePT+pvPOMLJROb96vR/wAAAIA6ALC9e5oMedS/5r/Z9Df/72zvzwgAke89Tz6pu3qz9V2MUbP6rlYAoFFyUcWsUHb1nxqYsFk0mwtAavlsCwCITdoAgGS3pA3SC4RXbLLdMsrK/FPbjQ+0nvGFk0kdxDYAAACgDgB8PFn4DH+bTbzc/zc/QTD8w9+Sjxg+1a9UQAAAqG9mOkiihgMdubOmP2VGvF+lpo+3AIB09fDNFjLn8siK+IlJXQ2fcNp/MjzjqFfsW6sYAgAAAMoHgId6pok/9NUjfcs19FJ+76xu3ugJ8P/4JfJOm1VXLf8UMAAAAAA6SPpEstV1cTK6LcYuXT2kHwCwCuup+gg5hj+UbUKSny4Wjz+QcKf2r9ErAAAAUD4AfDThYjbiv1AYoE8QHDvdSPb1duvS/CkEAAAAABol+rQWpmSv6+BndOkDBaXLH2wFgMZDW0CBS/k6zhB/YJn4w2sL4qX3p7nsUzE2QRxouaJxPAAAAADlA0C3W73Jfgo1/M3fow8OOuqf1635AwBg/hon+5sQIHc1tPI2u9T+xIvvZgCAg9oAQNsJ4vNESPS6pV08/7YWZZD8fnnLQESOcQIAAACUDwChSFTTHoBINEre883q2vwBAAAAjon9ptln2qfYc74pZci8X8WGt7YAgNj4kRbmS+Rrn5KAy7cq1r8eFBve1KQMsRF7e6Y64rQOAAAAKA8AHumb0dT8g9EIedMA5g8AAABwSuo5zZ+WQey+dIW38af2J557YysAXP5QE/Oldx+ERnudceEFIp7br0kZ5M66QqcjzluvJcQXAAAAUB4A7B6a1wwA3NEw2euZ1n3Ln5o/AAAAUEKCZpH0Sbz38sWUIfN+jdft2wIAdFwA73LQ/YlXPiKx5s8cdDZCsf51Tcog24R1vz+hvBuBSZ1niT0AAACgPAB4amBWEwCYj4TIS17jmD8AAACQJQnzTPgb+xL7mxq0MFy6z7jlFf0AwKX3SPzc/sjGY4nrX9MKAEhodnZEo9gAAAAAygMALS4B0IcMPe9xGqbljx4AmL9GCT4jXIj91+hsd5oYXrz6xa0AcOl9TcpCxyOINXtXNnoA6l7VpAy0HqKTQ1aN4gMAAAAoDwDo0/8WOc4BMBoOkGfdxjN/9AAAAjRK8lsgQBxqrdMEADq+2GL+G+arFQCce53EhZeTGz0ANXs0A4DYsO2aRrEBAAAAlA8ALQt+LpcB7GE/2WVQ8wcAAAA0SvJbACA21KEJAEjXT2YGgIvvaWK+Ys2rX5XH8oomZdi4LNLX3KJRbAAAAADlA8Abo+wnAroW8pInFU/WS3WrG+kVEwEBAjRK9GkQEBuxawMALZ9/ZbjVL9x8T+cG0KJHIi689FUZhJc0KcMGAPQ2tmkUFwAAAED5AEAvA4z52D0F8ErQY7jr/ZnABAAAANAo0acBQHS0WxsAuHb0puFudLvfgABNAGDL5YgXtQOAnksdGsUFAAAAoA4A7BtdIHQ6XqqnWgvdXnVgsSLMH5cAYP4aJfk086dlCI/3aQMAVw9nBoALB7ibb6bLEbKtmns5aA+A1H3BrlFsAAAAAOoAAO0FEKY9qpm/HIuSk/6FijF/AAAAQKMkvwUAohPD9Vp0udMZ/5Qt/9R78QL/aXgzPZZYsp7VBADErnO9xcaGP7wWDs/NN0fH+y3xoetnpL7G6nhv45n4QOtHsfHejwOLnmP+UJLeXZDrscMAAACAegBwX880ub5Y/nMBYrEoOeSbqyjzBwAAAIpN8qy+H3GOaTIPgEjvu1dc+0+912Ie/kyPJZY7zmgDAJ31g4XUtT+0thJxjlul7ga7bBOk/BBncUud9WdDczPv+cJJX4Z9AAAAAOoBAO0F2N49Ta4HS78rwBUJG2Zq30zX+XOtwxgAQECGJLylhc76O6Fpx4X85qH+PAHihXeyAMBb3I1XunJwS1nk9tPcy7FRD/ba3NMBh9aTkckhm2SzzJdcb3ZLW3jG+Zk3nFxWxBcAAACgLgBQCNjrniNHfHPEFQ0XfEmAPs2vNegx7D3+uYw/9RkAoHIAwB+QScAVcIUXXOOhRV9fwBsZ94fXoorkyt3YC913ZHb2UslGUsYEQvGGN7eYLu0FoBPy8C6PePn9LWWR2k5xL8cNAHBmq7uAN+KWu+on1NJH7L5w3h9cdt3YHwAAAMAGAKjp7fI4yXH/AhkIB4gU3frEQDrIbzYSInSU/0sGmtM/ZejFvgIADAwAwWUSdk56xb7G0YTdEsuSkFcTnTUD4sC1huC8m97bvZotsWu5Pji70Jil/EwNMF7/2hbT3bgM0MD/QTzihQNbyiK3Hmd6/Nk0l2w1C5niIbTgGknYLNFsvyt1fcJuGfP7YhO+cBIAAABgBwBKg6Qw8Jp3mhz2zZGD3lnyjneG/NYzVXHX+bc998AAACAASURBVJXHvPk9AMB4AOAPJEh01O6UbZZEsQk3Ya8ZjjhHL3rD68puV817BkIu97Vij0WN76dNvKMYC6DFk/joPlNjEFKvUsvnmgCAbLf4NwNAaG6+v5SYK7ie7Jb5gDd66Wtq/1UJUVLusqMh6qHGzGtZW1lpJpz+IvG15mHHEuG9nBoJEdo9z2OhlwA2mx/+dxAAgLEAIDIz5ZVtNdla+wWbhWSvHQ66AwObk7xW/wddgesFG0UZXf6b9yEqJt5JmS59FevfKFjLzdss9X+xTjEL4A0Yka59xr0cN8ofU8ZCwBuZTNiESKnHVujvEnbLIGk6/UeqMkC55k9/DwBQHxAAAF8+kldLEAEAGAQAQmskNmx1FppIC/zecmxiQKs539N6HYKeiK3AMqtniNbqLS3uFARo8SjeuOXlLeWRrn2q3vEWB04rNwEguJ5IdNYO8qqfhK36AwAAegBU7RlAD0Bm2AAA6B8A/KE1IvZdnWKVgONDbVrN+34TAvy+eA+r48u63fbTWwz3JgDUvc7XeLPAiNT8Cd9yKCDBF1rfGC8SHe3lPUlTMmGt/r9VgwD0AOS+loBLAJnNUcuWOa99AwD0DwDxgWvDWU1MkbDL+U58uKP1ZosvzF+TgF8aKqf8Jf229XhWAIjXvcbVeKX2UxnLQucGKOnYVIgLf2Al7g+uLso2i5t7GayWNgBAbt9W7VMAAABAy+SPfWc33OjEADdjjDpHr2tVF/7Asmq3lRVqVplm3kv1AMTr9nE1Xqk180OJpKuHuZZDqZ3fJ/pj1roO5Tqu7zssf6kKBKAHIDcraAUAZ0bCqnbz5xpMuA+DADMOgnzLs3CzG5ZX8veGkmRiViJDE1FDLOMzIvGG1rnrFPSG55mOut7SSrQkAouBcV5xoNyPP7Q2y9Vc6Hz3TR9nbHVvDAKs3cvVeKUsDyWSGg9yLUeqDugUxME5lztWty8uW7V5HkHCavkIAJDbu1X5VCsAqBnjBwBvLOIugEyXFd73LXIztp7hIHnylcvkb+48Qm657aChlm/dcZg8/vwF0t7j5aaX1H2J/3XxTsuMP7iSNgJcadTM3keStJt5PWVAPF6lxswPAvoSAF7larzS1UMZYUS88hHXctzUvfU4CQ129FEtNJuN0CZ4Cdn9j8qGAPQA5OYErQCgcTzOrQfgTVdlPcQnk5mXsu5zn4+LoTV1LJBb7/rYUKafCVK+ecdhUnfFyVyzgMvPrev/ZtK/0SMg9V7W4lnw4cLmkldvOmDpyocZTXcDAGo4A8DlDzKWRbr8gSYAIDUfJbErhyY2AKDthCZloHEptlv+DACQ27/L/lQrAOiZlDfm6c/Vda/WZ/vnXBm7wEsxzUr6TYM/xNzMZt3L5Af/8JnhzT8FBN/52SeEXhZg1hoOJ4nUe/niZmPm+X94YojvnQGhJJ3UKMTzGMWL72Y0XWp68Zo9XE1PyvZMgsvvcy1HSn/a8xCvfz1EtaBjJVLreb8m7MLdAICyLT73BrQCADrx0FN9C1x6AXaPzwMA3FsHOw4EE0yNjJrkcctwxZh/CgLe/7SLmW7+8LpPtglB3sk2fX/cxwMkZZuwmF4G9Vr7mbZLn/i3YfaKGQBv/l/zClfTizdsnQWQloU+rTBT2Vmv25iW2PLK6gYAaHgngmyr3gMAyO3fZX+qJQAcHPJzAYD7eqfI8+5pQIACAl5wTxMPh1u+dr/WVHEA8OtnzzEDgOCCS5MH42w2FclWM01vBWPZ06HctmwTpjeXgeX/dLa/m4a/GQIsnAGgbl/GstCeAZYaZNs2nQgpJry4USatBiLeKNunAICyLT73BrQEgLYJkQsA0EsJ+xcwDkB5+eKMP8DMxJSJ/YkXLlQcANz7hMBMu9hYz+lsiZn3eqn3CrdbA0WbZZzn8dFb/bIDwMtcjTdueSVjWWgvBU9NUvtSlke6pM04BFqWhE04BwDI7d9lf6olANDLAC/3L3KBgB1Dc+QptxO9APSpiG4ncYSWmZmYEgBePtBacQCw46VLzLSL9zWeTSViPbzyGg8g2SzcppuluipNbjMI0GcE8NM+x5TEDW9yLMeNSy4dZ9NghI6V4KfFlss+jQCAsi0+9wa0BoCNuwG6+DwUaL8LgwFpL8AJP5/R/xQE6hudFQcAn1uGmAGA1H3+vIYJN0OytyQC7sCoEupYvJfstd08jzte/WUX92bz3/hfeDGDDlvMSZ3vdOSYkvgc/8cS00cQKzURtYCQ1BwVaswIiNsA9Q0AtBfgzSFvWK0R/7m28+jADNntMfdYgOc902QutMrMwDabgzuwRu55rLpiIODOX50kC94VZvqJnQ2a3gGQ0YS/nB+A6XgAqbPWmnHfKTNQ87XjizSTUxpe6j23srSlG25q//RVi6cSSk2fpGmjxYORFNp3ogcgt3+X/anWPQAUAAZnEmNPD/C5I+DFyQXypGIwnPK6eKW/p8fdEYwzM6/N5p/6f8QRI3f/+ozhIeD27ScIndAodVwsXsXuiw2KBKhOK1MF82Q9HkDuPNfG67il65nn3lear2xl1OLfVBf0iX/K/aa9r+f7TAKqv3Q5fX4EsZbvnAjKGEjYhEEAQNkWn3sDegCAidnlkWHfMnm4b5bLeIA3TDovQF2ArXnlMsRF3yo5WTuyMRvgth01hA6kM8KyfYeF0Gv+n54dJPMMW/4p7eIDLRZlEtTT+8jkILPHB8vdDc28jlVqyTz3vtJ8eU2BK109kh0AOD+TgOq/cQug8q4IC98BkZtiYBIAkNu/y/5ULwBAE2CPO8EPAubNdVfAWU6j/lNGhtfsD/nJpU3UOVy7KQnqphdAtglLwcXAWK7yl/qZ2H2xkddx52x13zA/2XqWi+7ipha3EkK0aH3H61/bAiS8YChD/c8BAMq2+Nwb0BMA0ORBewJ2DfK5HPDarGtjRHwld/3v8jjJpUCYabd1qUkfv9sKCUFvpDdDIuRiRgXt114zzeJ5AfGeS9zmPxCbcrS6UwDQwQkAcs5IyHc+Alr/ceHlrQDQfkar+PMBAHL7d9mf6g0AqCkshNbIockAl6mCnx2bJ6+4Zyvy9sDXPHOEx2x/MPKtRl6GJmuyrWayIDPedD2Z12+k3svtZRxfRhgV+65yu/tBvHJwi8kpW970vdzxBRfTExveyl4W3t3v7ZkHR8oaPQ9AsglRAEDZFp97A3oEgFRyoZcEXh/xMB8XcF/vNHltxkVeqJA7BF72zJDLgQjxhPk/xjZVd3gtHQriI3ZureFSoSHqGFD1eQHiQPO5UstS7O/Ey+9nN91UDwCnVq9Y93r2svC8HZEOAGzNPDZCw+cBLAMAcvt32Z/qGQBSJkIvCxx3hsjuIRfTXgEKAq84FsibrnnDTR1Mp/Y96vNsjPJ3w/gztjJT8aT3V79f9sg2QS7W2Ph+f+N5AarNDxAbaKvnVf4tA92Ug95uAsBpLj0A8dpXswMA7YngdDcC1V5q+jhjWaTmT7hokan+y34kMOYByM0IRgAAZcKeD66RHk+CNC3EyYW5GDk3G2W2XFmMkau+GLnqj5Ir/ojultZAjHQGJeIIsbsvXak93pfeqi9Wu/jwdd33AsidlhlfcDlW7LFl+n5sqL0ukwGwWBdveDOj0SkvA0jtp7iYXvzGnPvKfSvf8xqMuAEA2R5L3HiIixaZ6pq0n/6DsnoBAACVBQCZkgfW8TMmaM1Ha39wJSrbLXOZkqKe1sV71BkPEBu2c7v7Qcww0l1puvQ9nSuAuc6FTEjEaSwCPVbxfObxCNKVD9lrkWU8S6S1/p8CAHJ7eFmfGq0HAAbEx4Cgs/Y6h+ZdLbJNWGVuRFmSb6H7VWN+gNhoNz8AqMnd7f4lAJxkb3ptJ/P2RMjtfC5F0LrO9oAkLZ8HIHWd/W8AAGVZfO4fAwC0T/QwW9RBthiIDdm4dY0XavgZvrcUcPnLGg8QHe/jdpz0YT+bW/yb/+cx8l269lnecnDpibgBgNl0oT0DGeqcy7rE9bN/AgDI7eFlfQoAgPlkMx+s10VsrMhdDa1aJeCC9/vleIBoqTETdQzyGQRozf70PSUEcAGALIPueJdjo45zPZSo/g0uZp8p1pY6a/4UAFCWxef+MQBAF0ne0KPWS036+F2BsRdIzBthPEA58wOEHaN8AKA9+9P3lMYrtR5nbnpiY/75CKS2z5mXgxqv1HIsa2+EWKfd8wBEW/W/AQDk9vCyPgUAFJiEw/geDFu7GAguLNKH5axkaiXpaV10orT5ASLTDj4PQWo7kdXo0gCghb3xipfey1sWqfUYHwC4ejh7WXhPSKQck9Ip/AUAoCyLz/1jAIB2SR2GCu2LiQFxpHLHAwSnp7g8BrmQ6+4UBGiLmDVYiRfezm66qfkIrn3KvBwbPQCXckyOJLxAZFs1l3Js1jxhr/kPAIDcHl7WpwAAmFAxJoTvahovK3L3OXpngCbJuND9SvaaWV9wuajxAOHZ+SuFbr+c79FJbZQt/WzvKSiUs59CfiueeyNvWaTmo8zLQcua7RbAlD5yhzbPA1iyVn8DAFCWxef+MQBA04SOa/+4tFJcDFToeIDQgrupENMs9ztS46G8pktNT+YBAHlmAaTlkJr4zMKX7RbAmwCg1fMA7JbvAgBye3hZnwIAAABo1RsrBowyHiAyOXCt0NgKLvq43OkgZZntLmV0qVf6yOByYSPf77PddpcqA32Vrh5mXg463XC+GQl5jUXYqln1jwEAZVl87h8DAIyV/AtNqPheZddrbNTO7b75rUm54EsQS4HFwuYHCLiD1jL2U7BJ0kltlAab7T3rrnfJerawcvCYhvf6qbxlYa1HtrpP2IW7AAC5PbysTwEAlW0UAIGKrd8Vsft8xYwHCHij3dlMQM31+a51p4CAteFJ7flnAaRlobcKqnn8mbZFn/aXOu5sr/TSSabfsl4n2Sz3AADKsvjcPwYAVKxBFHdtGdfijadXYGnBEPMD9FzqyAeiAZ84wNpM6PbF+vwD76gJ0ifjsSwP7VLPZrbK9SKHefjpZQblPjO951GOTHpL1upfAQBye3hZnwIAAAD5kjM+12+MBF0eOj/Acqbkqad1sYk84wECS2M8yhuv25vX7KgBSk1H2AJAoXcjXP6AaTmo5mKuWwBv3I6o2fMA7MJjAICyLD73jwEA+k3uMF7UTSExEBvp5DOLXnm3Hy4FF/0j2Y7HH1qZ4gIANa8UBAAiawC4WtjdCOKld9kDQAGPRxbPv828HJnqP2GzPAUAyO3hZX0KAIDJZEvKWG+Y2FiVjT8ewCXbhGQmE1BzXVx4oSAAYD36vtC7EcSL7zA3XrE2f68IvXSiZj0Uui3JbnkeAFCWxef+MQDAMEneeNeoMa6AX50FlhYkm2Wu0MSq1ffiWcYDeMPJoGwTlpiWy/pFQea/cQmA8e134oV3CiqLeOEAc+PNdwvgxpiAun3My5Gl7l8FAOT28LI+BQAAANDSr4wYCLo8140wHiCSeTyAlLAJkSwmoIr50EfrZhrglmkd61Hv4rn9BZVFbGD7KN6CNbG8okodFF2/VstbAICyLD73jwEAlZH8YeKoRxoDsVHDjgdYk22Cp2iDKGJcgtT6eUGmu9EDwPj2u3jtvsLK0vAmW+O9lv8WwBQg0QmDWNZPpm0nbNUfAABye3hZnwIAYByAh4qKgVWp6zyXWfUyJexC12V6XoBsE5hewpCuHS3MdDfuv/+IqdnFLQUORjy3n2k5Cp0amUKA3PEF07Jkih3JJnwCACjL4nP/GABQUcmf3zVnXN/Xr9aBJZcRxgNIPRc7lfAp2yyTmUxArXV0ZH+qNZvvVbz8ITuzs1YXXo7619iVg94CeDH/I4lTWkltp5iWJWM92y0nAAC5PbysTwEAAABlEsb7yoiH0KLXIOMB+m8+L0CyW4YzmkAR3fy5fk8n90mZWb5XpmMAihiMyHr0vdhQ2FgEqpd8/QR/ALAJAgCgLIvP/WMAQGUkfBg36nFzDERHus7lMkSdfLYSdHlGadlle00v0zK1Hi8YAGTGDwOKW14uqCzSBba3ARb6bIQNAGjnfwkgYRUaAAC5PbysT2NismnYsUS0XCZml7NOELI5qeF/GB1ioOAYWDXC8wJke82CL7AUlTpr7UwBwCoQse7V/MZr2UNkazXT1q54obCHErEGEfrMg3y9IRufM74Ukb3eq68CAMqy+Nw/jsvaA8D4zPIkknrBSV2/154xLkB/dRNIuAzxvIDuS1aps55etmBqvFLLsfyPvmXc+t84xo7TJF6TuxeA9S2AX2pdTeJ1ee5IEF4g9IFBrOsmy/bbAQC5PbysT+VEskXL1j/d9+jUkhsAAABADLCJgeCCp0O2CStZEqxWiT3Dfi0JHmWkECDWZugJqNlD6J0CPMqwsY+2k1nNd6Pr33qWT1naT2fvGRFeJNJVts9FyKN3DwCgLIvP/eOV1WSP1gAw7FhK+sJJGQbAxgCgK3Q1yHgAPoZ3o5eBPpGPDvaTrh76soWrwX3uG+Z37VMiXfmQiJfeI1LjQSJdP8lVh40yWKs3dKATFIk1e4lY/xoRL79P6GOL8xg0088lmzAMAMjt4eV+GqAGrDUEeEPJIRgVjAoxwCwGVuXuhmtaJnPsm+3ljQrV1wkAKNfi8/zeOb/s0BoAXN61m7cDwQSYmYD+rlFj3AC/OgkuLUp2y2yFGgXTlig00whe7IILAJDHwMv9OBZfu6Y1AEzOLI/D+GH8iAG2MRBweTqN8LwAGK5Ghst4EGYJ9RoCAJTr8Hl+n0wS14hzaVVrCPAG1ydgAGwNAPpC39hYjxHmB0CLXn9mrEWdyACAPAauxsfe4Gq71gAwvbBqg0HBoBADzGNgzRDzA8AAtTBcve0zSQj5eskQUCVESbnLjoaoZykWI7yWtZWVZjVMvZhtJJPENzq9JGkNAZ7Q+jAMgLkB8LvujGv8utTaH1jxyhgPoDezQ3kyQB+ZbPh9AEAxbl7id+VE8rrWADA2vTzjDeGWQEAQIIh1DARdXivGA+BaewnX5bmCSqjr9H8OACjR1Iv9mSe4atMaAqa+vBRA5wbQZesJ5UK9VEoMRMd6GvRuACifuSFFtNb8MQCgWCcv/fsrC96VXq0hYM671lYpSRbHAWDQcQysiV0XWmCy5jZZPdd/4vrZPwEAlG7opfxyxRPQvidg2rXa7gsnV3WcPNFDgV4a48dAYMkj2ywzejYBlM28gLLUWfOnAIBSbLzM30iJtbbRqWVNBwZOzq6M+ELJOUAAWtGIAXYxEFzw2mSbsASjNa/R6rXuRVv1vwEAlGnmpf48mSSL9BbBEefSmlaXBUYcS0vzX84UGIEJsDMBaGtubaOj3ef1agIol4nBxHr23wMASnVwlX6XTJL5SHytWctpg0ecS/HZxdVWbyjZ6w0nl2FY5jYs1L/q9b8m91zA8wIy3IoGANEOQBIdwv8DAFDJyFXajHd1lXTJibWWmLjWHImvNYUjq808l0g82Sgmkg1SInkhsUQuL62QxsRSshkLNDBCDNQMJtpebZZ6y11anSuHfaH1PWotAZ/4pGwTnDA87QwP2qdrL9qrvwUAUMm5sRkoAAW0V+Boj2wrd4Iy+vttlth3S06OWX4o2Wr+D4wHSDchmLJ2ekg24W+zhGr+1WqcZGaYCVD7lIgSQAHzKKBnAKBZVbYJD8L0tDM9aK/Q3lp9e36nz/INAIB5kiqOFAoYRQG9A8ANCDgOI1IYEcYGcJ0BMBV7CbtwdxZ7z78aAGCUlIhyQgHzKGAEACBtNf+pbBPGU4kYr4ABLWJAslVvz+/0Wb4BADBPUsWRQgGjKGAEAKApld6DLdsEWYvEj30CODZiwCo8nMXe868GABglJaKcUMA8ChgFAGiGlW3CAzBjmLFWMZCwCk/md/os3wAAmCep4kihgFEUMBIA3ICAz7UyAOzX3PAh2YTdWew9/2oAgFFSIsoJBcyjgNEA4MZ4gDGYsbnNWJv6r96T3+mzfAMAYJ6kiiOFAkZRwGgAQNOraK35c4wHAABwhwC78GYWe8+/GgBglJSIckIB8yhgRACg2VayVv+KuwHg9jtNbr/TSz0nbNUf5Hf6LN8AAJgnqeJIoYBRFDAqANA0K9ssx/RiDihH5fdISDbhkyz2nn81AMAoKRHlhALmUcDIAECaTv+RbBMwHgA9E3x6JqzCyfxOn+UbAADzJFUcKRQwigJGBgCaajEeoPJb3rrpXbFX12Sx9/yrAQBGSYkoJxQwjwJGBwCaeSW7cJ9uTAKtcT6tcQ10lmzCxfxOn+UbAADzJFUcKRQwigKVAAA05WI8AHoC2ENg9bUs9p5/NQDAKCkR5YQC5lGgUgBgYzyA1TLK3gRgtKbV2CrY8jt9lm8AAMyTVHGkUMAoClQKANC0K7Zb/gzzAwBQ2AFKdX8We8+/GgBglJSIckIB8yhQSQBAszB9Yhs7A4C5mlzb8fxOn+UbAADzJFUcKRQwigKVBgA0/cpW4TOTG1XFDsTTuF5ns9h7/tUAAKOkRJQTCphHgUoEAIwHQE8FI1Dw5nf6LN8AAJgnqeJIoYBRFKhEAKApGOMBAAEMICCWxd7zrwYAGCUlopxQwDwKVCoA0Iws2SzbGJgAutc1uAdfJ/W4kt/ps3wDAGCepIojhQJGUaCSAYA0Nf2ubBPiOjEPgEMFgEMWe8+/GgBglJSIckIB8yhQyQBAs7JsF5oAALgcoFIMJPM7fZZvAADMk1RxpFDAKApUOgBIduFllZI/WvAV0IIvMxbWs9h7/tUAAKOkRJQTCphHgYoHgI6a75WZ9GH8MP5UDMj5nT7LNwAA5kmqOFIoYBQFKh0A4ter/xkAAJcAVIqBqSz2nn81AMAoKRHlhALmUaDSAYBmZtkmOFQygFRLEK/m7BVoz+/0Wb4BADBPUsWRQgGjKGAOALAcAwCgF6D8GKg+k8Xe868GABglJaKcUMA8CpgDAIQHyk/+MFCza5iwVj+b3+mzfAMAYJ6kiiOFAkZRwAwAIFmFf2d288Lxlw9wkrX6+1nsPf9qAIBRUiLKCQXMo4AZAIB0ffh7sk2QYILlm6CZNUxcP/sn+Z0+yzcAAOZJqjhSKGAUBcwAADQly7bqa2Y2Lxx72fAzk8XaC1sNADBKSkQ5oYB5FDAPAAivwgTLNkHT3v0g2YTDhTl9lm8BAMyTVHGkUMAoCpgHACw/AAAAAMqIgTuyWHthqwEARkmJKCcUMI8CZgEA0Vrzx2Ukf9O2fKHZBjQtEWvDf1aY02f5FgDAPEkVRwoFjKKAWQCApmXZJkzD0NALUHQM2Ktrsth64asBAEZJiSgnFDCPAiYDgONFJ39zzniHHg9FvSfswl2FO32WbwIAzJNUcaRQwCgKmAoA7NUPAQDQA1BMDCRsQoR01f2TLLZe+GoAgFFSIsoJBcyjgKkAoFP4i2KSP74LWJDtlncKd/kc3wQAmCep4kihgFEUMBMAkOHT/1i2WRIwdhh7gTGQFK01f57D1gv/CABglJSIckIB8yhgJgCg2Vq2WtoKTP64Dq64Dm5GzRI24VzhDp/nmwAA8yRVHCkUMIoCpgMAe/U+M5oZjrn4Xo+EveY/5LH1wj8GABglJaKcUMA8CpgOAKzCj2CGxZuhCTWzFu7uBXwTAGCepIojhQJGUcBsACC11fwLE5oZLmcUeTlD6qj5XgG2XvhXAABGSYkoJxQwjwJmAwCasWWbMAcIQC9AthiQbMIIIbv/UeHuXsA3AQDmSao4UihgFAVMCgCnsiV/rAcYyDahvHn/M/EAAMAoKRHlhALmUcCcAGB5BEYPo88UA5JNGFa99U+BAABgnqSKI4UCRlHAlABgPfvvMyV/rAMUSNbq72dqwJe9DgBglJSIckIB8yhgRgAgkw2/L9uEIAwfhq+MgYRVaCjb6LNtAABgnqSKI4UCRlHAjABAc7Rsq35Umfzx3vQwEF/qEv77bP5d9noAgFFSIsoJBcyjgFkB4EYvgAPGb3rj37hFUrJX31u2yefaAADAPEkVRwoFjKKAWQGA5uqEXfh/ZZuQBASYHQIsp3N5tyqfAQCMkhJRTihgHgXMDAAbEGCrPggAMC8AJGzCIGk6/UeqmHyujQAAzJNUcaRQwCgKmB0ASP/FP6S3fgECzAgB1QuJDuG/y+Xbqn0GADBKSkQ5oYB5FDA7ANAEv2y1/M+yTYgBAkwFAX5a76oZfL4NqQEATzREA0uxGOG1rK2sNJsnFeJIoYD5FDjUJXWpkZu2WWLfzZcD9fx5wlb9V7JNWAYEmAICPKK15s+5xqMaJ9l2S3R9KRZb5QUAq0tLbeZLiThiKGAeBfY0xyfVyE1GBwBqBgmr5RcYFFjxADCx1F7zP3A1f7ozNU4yug1/MNbPCwCWRXHePKkQRwoFzKVAMknCtFGhRm6qBACgeVqyWe6RbcI6egIqDwQkm3Ax0lr/T7mbv5oAcMQWH+QFAHQ/yWSy21xpEUcLBcyhQPfCarsa5k+3USkAQHN1wi7chcsBFQUAqwlb9S5y+vTvaGL+agIAPdkcrmg3LwhYlqQFQkjQHCkRRwkFzKHA0lrS+WBdbAkAkNkSEvbq/yjbhAB6AowOAtX9coflLzPXMse1ap1odDv310TXR+e4QsBkMpmcM0dqxFFCgcpWILaUHP/N+VhMzZxUST0AKVtIdNX+K9kmtAMCDAkBQdlmeYQ0Nf1uqj41fVXzZEtta39rdGbSFe0VI1HfUiy2xrRXIB5PSPKybWU1OZZMknhlp0gcHRSoLAXWkyQYENeHTg8sDW2zREkqh6j1WokAQA2DGohkE3bjkoBhICAs2SwvhnuF/0JTw9+8c7VONGxH/eQFTaEpYqC8GKhUAEjl8bi99n+RbUIzegP0CQIJuzDw/1+yeYDLrH6poCjmFQmmvAQD/aAfYkC/MVDpAJDK9ZKt+juyrbofIKA5CNBnOPTKVssrol34t6n6IShhWwAABTtJREFU0e0rkpd+kxfqBnWDGCgvBswCANRgCCFflzqFv5GswmXcMsgFBGJ0zn7ZJlgkW/VLkrX6+6L99D/XrdlnKhgSTHkJBvpBP8SAfmPATACgzO90LvmETXhOtgl9JugVoDMlhmSb4JNtglO2CfRxyl03lisbQGQVzso2y2nJXn0kYRc+lO3CftlWvUeyW56XbZYdsq36UckqVCVswj/Ituofy1bL3y11Wm6hi2Q/+39KVuHfLdmq/6elzrP/WrTW/DHp+vD3lHob9j2Sl36TF+oGdYMYKC8GzAoASkOidw3Q2QQTVstHG93TNktCZShYuWHA/gwG3Phlj0R19YYBW4WPbxjwm2kGbBceowb85YRH1T+mJpzVgO2n/zmdOIe0n/4D5XHifQkKIMGUl2CgH/RDDOg3BgAAW02BkN3/iPYQyJ1n/y/abZ2wVv9yw3ypAdur791oAVMDtlZ/g5qw3Cn8xUYLuLPmTzdawCkD7qr7J1u3jjWGUgDJS7/JC3WDukEMlBcDAABD2REKy1sBJJjyEgz0g36IAf3GAACAt6Ngf4ZSAMlLv8kLdYO6QQyUFwMAAEPZEQrLWwEkmPISDPSDfogB/cYAAIC3o2B/hlIAyUu/yQt1g7pBDJQXAwAAQ9kRCstbASSY8hIM9IN+iAH9xgAAgLejYH+GUgDJS7/JC3WDukEMlBcDAABD2REKy1sBJJjyEgz0g36IAf3GAACAt6Ngf4ZSAMlLv8kLdYO6QQyUFwMAAEPZEQrLWwEkmPISDPSDfogB/cYAAIC3o2B/hlIAyUu/yQt1g7pBDJQXAwAAQ9kRCstbASSY8hIM9IN+iAH9xgAAgLejYH+GUgDJS7/JC3WDukEMlBcDAABD2REKy1sBJJjyEgz0g36IAf3GAACAt6Ngf4ZSAMlLv8kLdYO6QQyUFwMAAEPZEQrLWwEkmPISDPSDfogB/cYAAIC3o2B/hlIAyUu/yQt1g7pBDJQXAwAAQ9kRCstbASSY8hIM9IN+iAH9xgAAgLejYH+GUgDJS7/JC3WDukEMlBcDAABD2REKy1sBJJjyEgz0g36IAf3GAACAt6Ngf4ZSoEqIriCB6TeBoW5QN4iB0mPgXkv0m4ZKyCgsFOCpQJUQ9SPBlJ5goB20QwzoOAYs0b/kmU+xLyhgKAWqhGgnEpiOE5iAsiE+EQOlxsAvTsf/a0MlZBQWCvBUoEqIHij15MLvkJgRA4gBHceAk2cuxb6ggOEUuNcSuUXHJzBB2WAwiAHEQEkxUB19w3AJGQWGAjwVqPqQ/F6VEA2VdIKhexqAghhADOg0Bu6tjv9HnrkU+4IChlSgSojuBgCglYUYQAxUUAzYv0bI1w2ZkFFoKMBTgftP+/6oyhJ1V9DJj1aZTltliDFABo8YuKc68lc8cyj2BQUMrcC9QvRnPE5M7AMGgBhADDCNAUv0hKGTMQoPBbRQoEqI7md6YqJVip4JxABigG0M9P7soucPtcif2CcUMLQCPz5NfqdKiAiAALTQEAOIAQPGwHRVbehfGToJo/BQQFMFCPk6BgUi+Rsw+aNlzbZlrWt977VE2+6pEf9Y09yJnUOBSlFgmyXyd1VCdAZGABhADCAGdBwD0r1C9IUfnyb/uFJyL44DCuhCgbs/Jv9JlRB7DCAAA9CxAei6ZQrdmJ070Soh9uEva6R/oYtkiUJAgUpWYHtN+H+7tzr6bJUQra0SIoNVQtSJBRogBhADnGJgbJsQa7xXiL5Nn/CHFn8luw2ODQpAASgABaAAFIACUKAsBf4/22g8iyDPh9EAAAAASUVORK5CYII=;" vertex="1" parent="1">
          <mxGeometry x="234" y="214" width="82" height="82" as="geometry" />
        </mxCell>
        <mxCell id="Rv-0y1nZuI-blnS7nTe4-14" value="Diagnose Patient" style="whiteSpace=wrap;html=1;aspect=fixed;" vertex="1" parent="1">
          <mxGeometry x="810" y="60" width="80" height="80" as="geometry" />
        </mxCell>
        <mxCell id="Rv-0y1nZuI-blnS7nTe4-15" value="Recommend treatment&amp;nbsp;" style="whiteSpace=wrap;html=1;aspect=fixed;" vertex="1" parent="1">
          <mxGeometry x="940" y="60" width="80" height="80" as="geometry" />
        </mxCell>
        <mxCell id="Rv-0y1nZuI-blnS7nTe4-16" value="Check Patient&#39;s Insurance" style="whiteSpace=wrap;html=1;aspect=fixed;" vertex="1" parent="1">
          <mxGeometry x="690" y="60" width="80" height="80" as="geometry" />
        </mxCell>
        <mxCell id="Rv-0y1nZuI-blnS7nTe4-17" value="Check Medical Necessity" style="whiteSpace=wrap;html=1;aspect=fixed;" vertex="1" parent="1">
          <mxGeometry x="690" y="160" width="80" height="80" as="geometry" />
        </mxCell>
        <mxCell id="Rv-0y1nZuI-blnS7nTe4-19" value="Check approved procedures" style="whiteSpace=wrap;html=1;aspect=fixed;" vertex="1" parent="1">
          <mxGeometry x="690" y="260" width="80" height="80" as="geometry" />
        </mxCell>
        <mxCell id="Rv-0y1nZuI-blnS7nTe4-20" value="Check Medical Necessity" style="whiteSpace=wrap;html=1;aspect=fixed;" vertex="1" parent="1">
          <mxGeometry x="1110" y="80" width="80" height="80" as="geometry" />
        </mxCell>
      </root>
    </mxGraphModel>
  </diagram>
</mxfile>
